<svg xmlns="http://www.w3.org/2000/svg" xmlns:xlink="http://www.w3.org/1999/xlink" width="283" zoomAndPan="magnify" viewBox="0 0 212.25 227.999995" height="304" preserveAspectRatio="xMidYMid meet" version="1.0"><defs><g/><clipPath id="b4b17ad2c3"><path d="M 0 0.402344 L 211.503906 0.402344 L 211.503906 227.597656 L 0 227.597656 Z M 0 0.402344 " clip-rule="nonzero"/></clipPath><clipPath id="413198f956"><path d="M 0 0.402344 L 211.332031 0.402344 L 211.332031 227.089844 L 0 227.089844 Z M 0 0.402344 " clip-rule="nonzero"/></clipPath><clipPath id="5a5b883e3f"><path d="M 0 0.402344 L 211.332031 0.402344 L 211.332031 227.089844 L 0 227.089844 Z M 0 0.402344 " clip-rule="nonzero"/></clipPath><clipPath id="9632bdbf6e"><rect x="0" width="212" y="0" height="228"/></clipPath><clipPath id="b6d11b29fd"><path d="M 26.300781 32.183594 L 69.515625 32.183594 L 69.515625 75.398438 L 26.300781 75.398438 Z M 26.300781 32.183594 " clip-rule="nonzero"/></clipPath><clipPath id="a7645a6a0f"><path d="M 47.90625 32.183594 C 35.972656 32.183594 26.300781 41.855469 26.300781 53.789062 C 26.300781 65.722656 35.972656 75.398438 47.90625 75.398438 C 59.839844 75.398438 69.515625 65.722656 69.515625 53.789062 C 69.515625 41.855469 59.839844 32.183594 47.90625 32.183594 Z M 47.90625 32.183594 " clip-rule="nonzero"/></clipPath><clipPath id="1fa1b10ed7"><path d="M 0.300781 0.183594 L 43.515625 0.183594 L 43.515625 43.398438 L 0.300781 43.398438 Z M 0.300781 0.183594 " clip-rule="nonzero"/></clipPath><clipPath id="0f5293ce41"><path d="M 21.90625 0.183594 C 9.972656 0.183594 0.300781 9.855469 0.300781 21.789062 C 0.300781 33.722656 9.972656 43.398438 21.90625 43.398438 C 33.839844 43.398438 43.515625 33.722656 43.515625 21.789062 C 43.515625 9.855469 33.839844 0.183594 21.90625 0.183594 Z M 21.90625 0.183594 " clip-rule="nonzero"/></clipPath><clipPath id="fae675ae2b"><rect x="0" width="44" y="0" height="44"/></clipPath><clipPath id="ce758c1654"><path d="M 99.777344 22.640625 L 193.3125 22.640625 L 193.3125 116.175781 L 99.777344 116.175781 Z M 99.777344 22.640625 " clip-rule="nonzero"/></clipPath><clipPath id="a4725e6751"><path d="M 146.542969 22.640625 C 120.714844 22.640625 99.777344 43.582031 99.777344 69.410156 C 99.777344 95.238281 120.714844 116.175781 146.542969 116.175781 C 172.371094 116.175781 193.3125 95.238281 193.3125 69.410156 C 193.3125 43.582031 172.371094 22.640625 146.542969 22.640625 Z M 146.542969 22.640625 " clip-rule="nonzero"/></clipPath><clipPath id="d33926dd91"><path d="M 0.777344 0.640625 L 94.3125 0.640625 L 94.3125 94.175781 L 0.777344 94.175781 Z M 0.777344 0.640625 " clip-rule="nonzero"/></clipPath><clipPath id="13a3fe15d2"><path d="M 47.542969 0.640625 C 21.714844 0.640625 0.777344 21.582031 0.777344 47.410156 C 0.777344 73.238281 21.714844 94.175781 47.542969 94.175781 C 73.371094 94.175781 94.3125 73.238281 94.3125 47.410156 C 94.3125 21.582031 73.371094 0.640625 47.542969 0.640625 Z M 47.542969 0.640625 " clip-rule="nonzero"/></clipPath><clipPath id="3a0872b1f8"><rect x="0" width="95" y="0" height="95"/></clipPath><clipPath id="16310f832d"><path d="M 18.023438 82.917969 L 84.535156 82.917969 L 84.535156 149.433594 L 18.023438 149.433594 Z M 18.023438 82.917969 " clip-rule="nonzero"/></clipPath><clipPath id="2ff0c81f40"><path d="M 51.28125 82.917969 C 32.910156 82.917969 18.023438 97.808594 18.023438 116.175781 C 18.023438 134.542969 32.910156 149.433594 51.28125 149.433594 C 69.648438 149.433594 84.535156 134.542969 84.535156 116.175781 C 84.535156 97.808594 69.648438 82.917969 51.28125 82.917969 Z M 51.28125 82.917969 " clip-rule="nonzero"/></clipPath><clipPath id="eae93703e0"><path d="M 0.0234375 0.917969 L 66.535156 0.917969 L 66.535156 67.433594 L 0.0234375 67.433594 Z M 0.0234375 0.917969 " clip-rule="nonzero"/></clipPath><clipPath id="a74b9374dd"><path d="M 33.28125 0.917969 C 14.910156 0.917969 0.0234375 15.808594 0.0234375 34.175781 C 0.0234375 52.542969 14.910156 67.433594 33.28125 67.433594 C 51.648438 67.433594 66.535156 52.542969 66.535156 34.175781 C 66.535156 15.808594 51.648438 0.917969 33.28125 0.917969 Z M 33.28125 0.917969 " clip-rule="nonzero"/></clipPath><clipPath id="99ed13f5d4"><rect x="0" width="67" y="0" height="68"/></clipPath><clipPath id="04cef5dca5"><path d="M 99.777344 127.253906 L 128.078125 127.253906 L 128.078125 155.554688 L 99.777344 155.554688 Z M 99.777344 127.253906 " clip-rule="nonzero"/></clipPath><clipPath id="905ed9b722"><path d="M 113.925781 127.253906 C 106.113281 127.253906 99.777344 133.589844 99.777344 141.40625 C 99.777344 149.21875 106.113281 155.554688 113.925781 155.554688 C 121.742188 155.554688 128.078125 149.21875 128.078125 141.40625 C 128.078125 133.589844 121.742188 127.253906 113.925781 127.253906 Z M 113.925781 127.253906 " clip-rule="nonzero"/></clipPath><clipPath id="370fe830a1"><path d="M 0.777344 0.253906 L 29.078125 0.253906 L 29.078125 28.554688 L 0.777344 28.554688 Z M 0.777344 0.253906 " clip-rule="nonzero"/></clipPath><clipPath id="9908e7fbb4"><path d="M 14.925781 0.253906 C 7.113281 0.253906 0.777344 6.589844 0.777344 14.40625 C 0.777344 22.21875 7.113281 28.554688 14.925781 28.554688 C 22.742188 28.554688 29.078125 22.21875 29.078125 14.40625 C 29.078125 6.589844 22.742188 0.253906 14.925781 0.253906 Z M 14.925781 0.253906 " clip-rule="nonzero"/></clipPath><clipPath id="2c031659b4"><rect x="0" width="30" y="0" height="29"/></clipPath><clipPath id="a7c44d4d11"><path d="M 71.476562 18.035156 L 99.777344 18.035156 L 99.777344 46.332031 L 71.476562 46.332031 Z M 71.476562 18.035156 " clip-rule="nonzero"/></clipPath><clipPath id="5764131cf7"><path d="M 85.628906 18.035156 C 77.8125 18.035156 71.476562 24.367188 71.476562 32.183594 C 71.476562 39.996094 77.8125 46.332031 85.628906 46.332031 C 93.441406 46.332031 99.777344 39.996094 99.777344 32.183594 C 99.777344 24.367188 93.441406 18.035156 85.628906 18.035156 Z M 85.628906 18.035156 " clip-rule="nonzero"/></clipPath><clipPath id="510481182b"><path d="M 0.476562 0.0351562 L 28.777344 0.0351562 L 28.777344 28.332031 L 0.476562 28.332031 Z M 0.476562 0.0351562 " clip-rule="nonzero"/></clipPath><clipPath id="ed76a0b1e1"><path d="M 14.628906 0.0351562 C 6.8125 0.0351562 0.476562 6.367188 0.476562 14.183594 C 0.476562 21.996094 6.8125 28.332031 14.628906 28.332031 C 22.441406 28.332031 28.777344 21.996094 28.777344 14.183594 C 28.777344 6.367188 22.441406 0.0351562 14.628906 0.0351562 Z M 14.628906 0.0351562 " clip-rule="nonzero"/></clipPath><clipPath id="f4a9f38b8c"><rect x="0" width="29" y="0" height="29"/></clipPath><clipPath id="bd69aef6e8"><path d="M 63 30 L 67 30 L 67 37.660156 L 63 37.660156 Z M 63 30 " clip-rule="nonzero"/></clipPath><clipPath id="9129edfa9a"><rect x="0" width="171" y="0" height="38"/></clipPath></defs><g clip-path="url(#b4b17ad2c3)"><path fill="#ffffff" d="M 0 0.402344 L 211.503906 0.402344 L 211.503906 227.597656 L 0 227.597656 Z M 0 0.402344 " fill-opacity="1" fill-rule="nonzero"/></g><g clip-path="url(#413198f956)"><g transform="matrix(1, 0, 0, 1, 0, -0.000000000000009881)"><g clip-path="url(#9632bdbf6e)"><g clip-path="url(#5a5b883e3f)"><path fill="#06442f" d="M 0 0.402344 L 211.332031 0.402344 L 211.332031 227.417969 L 0 227.417969 Z M 0 0.402344 " fill-opacity="1" fill-rule="nonzero"/></g></g></g></g><g clip-path="url(#b6d11b29fd)"><g clip-path="url(#a7645a6a0f)"><g transform="matrix(1, 0, 0, 1, 26, 32)"><g clip-path="url(#fae675ae2b)"><g clip-path="url(#1fa1b10ed7)"><g clip-path="url(#0f5293ce41)"><path fill="#ffffff" d="M 0.300781 0.183594 L 43.515625 0.183594 L 43.515625 43.398438 L 0.300781 43.398438 Z M 0.300781 0.183594 " fill-opacity="1" fill-rule="nonzero"/></g></g></g></g></g></g><g clip-path="url(#ce758c1654)"><g clip-path="url(#a4725e6751)"><g transform="matrix(1, 0, 0, 1, 99, 22)"><g clip-path="url(#3a0872b1f8)"><g clip-path="url(#d33926dd91)"><g clip-path="url(#13a3fe15d2)"><path fill="#ffffff" d="M 0.777344 0.640625 L 94.3125 0.640625 L 94.3125 94.175781 L 0.777344 94.175781 Z M 0.777344 0.640625 " fill-opacity="1" fill-rule="nonzero"/></g></g></g></g></g></g><g clip-path="url(#16310f832d)"><g clip-path="url(#2ff0c81f40)"><g transform="matrix(1, 0, 0, 1, 18, 82)"><g clip-path="url(#99ed13f5d4)"><g clip-path="url(#eae93703e0)"><g clip-path="url(#a74b9374dd)"><path fill="#ffffff" d="M 0.0234375 0.917969 L 66.535156 0.917969 L 66.535156 67.433594 L 0.0234375 67.433594 Z M 0.0234375 0.917969 " fill-opacity="1" fill-rule="nonzero"/></g></g></g></g></g></g><g clip-path="url(#04cef5dca5)"><g clip-path="url(#905ed9b722)"><g transform="matrix(1, 0, 0, 1, 99, 127)"><g clip-path="url(#2c031659b4)"><g clip-path="url(#370fe830a1)"><g clip-path="url(#9908e7fbb4)"><path fill="#ffffff" d="M 0.777344 0.253906 L 29.078125 0.253906 L 29.078125 28.554688 L 0.777344 28.554688 Z M 0.777344 0.253906 " fill-opacity="1" fill-rule="nonzero"/></g></g></g></g></g></g><g clip-path="url(#a7c44d4d11)"><g clip-path="url(#5764131cf7)"><g transform="matrix(1, 0, 0, 1, 71, 18)"><g clip-path="url(#f4a9f38b8c)"><g clip-path="url(#510481182b)"><g clip-path="url(#ed76a0b1e1)"><path fill="#ffffff" d="M 0.476562 0.0351562 L 28.777344 0.0351562 L 28.777344 28.332031 L 0.476562 28.332031 Z M 0.476562 0.0351562 " fill-opacity="1" fill-rule="nonzero"/></g></g></g></g></g></g><g transform="matrix(1, 0, 0, 1, 20, 172)"><g clip-path="url(#9129edfa9a)"><g fill="#ffffff" fill-opacity="1"><g transform="translate(62.056777, 10.351569)"><g><path d="M 5.265625 -4.84375 L 9.875 -4.84375 L 9.875 -4.484375 C 9.875 -3.847656 9.753906 -3.253906 9.515625 -2.703125 C 9.273438 -2.148438 8.941406 -1.660156 8.515625 -1.234375 C 8.097656 -0.804688 7.613281 -0.472656 7.0625 -0.234375 C 6.507812 0.00390625 5.914062 0.125 5.28125 0.125 C 4.632812 0.125 4.03125 0.00390625 3.46875 -0.234375 C 2.914062 -0.472656 2.429688 -0.804688 2.015625 -1.234375 C 1.597656 -1.660156 1.269531 -2.148438 1.03125 -2.703125 C 0.789062 -3.253906 0.671875 -3.847656 0.671875 -4.484375 C 0.671875 -5.117188 0.789062 -5.710938 1.03125 -6.265625 C 1.269531 -6.816406 1.597656 -7.304688 2.015625 -7.734375 C 2.429688 -8.160156 2.914062 -8.488281 3.46875 -8.71875 C 4.03125 -8.957031 4.632812 -9.078125 5.28125 -9.078125 C 6.144531 -9.078125 6.929688 -8.851562 7.640625 -8.40625 C 8.359375 -7.96875 8.914062 -7.390625 9.3125 -6.671875 L 8.046875 -6 C 7.785156 -6.5 7.410156 -6.894531 6.921875 -7.1875 C 6.429688 -7.488281 5.882812 -7.640625 5.28125 -7.640625 C 4.6875 -7.640625 4.144531 -7.5 3.65625 -7.21875 C 3.175781 -6.9375 2.796875 -6.554688 2.515625 -6.078125 C 2.242188 -5.609375 2.109375 -5.078125 2.109375 -4.484375 C 2.109375 -3.890625 2.242188 -3.351562 2.515625 -2.875 C 2.796875 -2.40625 3.175781 -2.03125 3.65625 -1.75 C 4.144531 -1.46875 4.6875 -1.328125 5.28125 -1.328125 C 6.007812 -1.328125 6.648438 -1.539062 7.203125 -1.96875 C 7.753906 -2.394531 8.125 -2.941406 8.3125 -3.609375 L 5.265625 -3.609375 Z M 5.265625 -4.84375 "/></g></g></g><g fill="#ffffff" fill-opacity="1"><g transform="translate(72.585531, 10.351569)"><g><path d="M 5.140625 -3.90625 L 7.703125 0 L 6.0625 0 L 3.6875 -3.765625 L 2.453125 -3.765625 L 2.453125 0 L 0.984375 0 L 0.984375 -8.96875 L 4.5 -8.96875 C 4.988281 -8.96875 5.425781 -8.847656 5.8125 -8.609375 C 6.195312 -8.378906 6.503906 -8.0625 6.734375 -7.65625 C 6.960938 -7.257812 7.078125 -6.816406 7.078125 -6.328125 C 7.078125 -5.722656 6.894531 -5.195312 6.53125 -4.75 C 6.164062 -4.300781 5.703125 -4.019531 5.140625 -3.90625 Z M 2.453125 -5.03125 L 4.3125 -5.03125 C 4.695312 -5.03125 5.015625 -5.148438 5.265625 -5.390625 C 5.515625 -5.628906 5.640625 -5.9375 5.640625 -6.3125 C 5.640625 -6.695312 5.515625 -7.007812 5.265625 -7.25 C 5.015625 -7.488281 4.695312 -7.609375 4.3125 -7.609375 L 2.453125 -7.609375 Z M 2.453125 -5.03125 "/></g></g></g><g fill="#ffffff" fill-opacity="1"><g transform="translate(80.321557, 10.351569)"><g><path d="M 5.25 0.125 C 4.601562 0.125 4.003906 0.00390625 3.453125 -0.234375 C 2.898438 -0.472656 2.410156 -0.804688 1.984375 -1.234375 C 1.566406 -1.660156 1.238281 -2.148438 1 -2.703125 C 0.757812 -3.253906 0.640625 -3.847656 0.640625 -4.484375 C 0.640625 -5.117188 0.757812 -5.710938 1 -6.265625 C 1.238281 -6.816406 1.566406 -7.304688 1.984375 -7.734375 C 2.410156 -8.160156 2.898438 -8.488281 3.453125 -8.71875 C 4.003906 -8.957031 4.601562 -9.078125 5.25 -9.078125 C 5.882812 -9.078125 6.476562 -8.957031 7.03125 -8.71875 C 7.582031 -8.488281 8.066406 -8.160156 8.484375 -7.734375 C 8.910156 -7.304688 9.242188 -6.816406 9.484375 -6.265625 C 9.722656 -5.710938 9.84375 -5.117188 9.84375 -4.484375 C 9.84375 -3.847656 9.722656 -3.253906 9.484375 -2.703125 C 9.242188 -2.148438 8.910156 -1.660156 8.484375 -1.234375 C 8.066406 -0.804688 7.582031 -0.472656 7.03125 -0.234375 C 6.476562 0.00390625 5.882812 0.125 5.25 0.125 Z M 5.25 -1.328125 C 5.84375 -1.328125 6.375 -1.46875 6.84375 -1.75 C 7.320312 -2.03125 7.695312 -2.40625 7.96875 -2.875 C 8.25 -3.351562 8.390625 -3.890625 8.390625 -4.484375 C 8.390625 -5.078125 8.25 -5.609375 7.96875 -6.078125 C 7.695312 -6.554688 7.320312 -6.9375 6.84375 -7.21875 C 6.375 -7.5 5.84375 -7.640625 5.25 -7.640625 C 4.65625 -7.640625 4.117188 -7.5 3.640625 -7.21875 C 3.160156 -6.9375 2.78125 -6.554688 2.5 -6.078125 C 2.226562 -5.609375 2.09375 -5.078125 2.09375 -4.484375 C 2.09375 -3.890625 2.226562 -3.351562 2.5 -2.875 C 2.78125 -2.40625 3.160156 -2.03125 3.640625 -1.75 C 4.117188 -1.46875 4.65625 -1.328125 5.25 -1.328125 Z M 5.25 -1.328125 "/></g></g></g><g fill="#ffffff" fill-opacity="1"><g transform="translate(90.805506, 10.351569)"><g><path d="M 5.90625 -4.546875 C 6.34375 -4.378906 6.695312 -4.117188 6.96875 -3.765625 C 7.25 -3.410156 7.390625 -2.957031 7.390625 -2.40625 C 7.390625 -1.914062 7.273438 -1.488281 7.046875 -1.125 C 6.816406 -0.757812 6.507812 -0.476562 6.125 -0.28125 C 5.75 -0.09375 5.320312 0 4.84375 0 L 0.984375 0 L 0.984375 -8.96875 L 4.515625 -8.96875 C 4.992188 -8.96875 5.425781 -8.867188 5.8125 -8.671875 C 6.195312 -8.472656 6.503906 -8.191406 6.734375 -7.828125 C 6.972656 -7.460938 7.09375 -7.03125 7.09375 -6.53125 C 7.09375 -6.050781 6.984375 -5.644531 6.765625 -5.3125 C 6.554688 -4.976562 6.269531 -4.722656 5.90625 -4.546875 Z M 5.640625 -6.375 C 5.640625 -6.738281 5.507812 -7.035156 5.25 -7.265625 C 5 -7.492188 4.695312 -7.609375 4.34375 -7.609375 L 2.4375 -7.609375 L 2.4375 -5.125 L 4.34375 -5.125 C 4.695312 -5.125 5 -5.242188 5.25 -5.484375 C 5.507812 -5.734375 5.640625 -6.03125 5.640625 -6.375 Z M 4.625 -1.359375 C 4.988281 -1.359375 5.296875 -1.472656 5.546875 -1.703125 C 5.804688 -1.941406 5.9375 -2.234375 5.9375 -2.578125 C 5.9375 -2.929688 5.804688 -3.226562 5.546875 -3.46875 C 5.296875 -3.71875 4.988281 -3.84375 4.625 -3.84375 L 2.4375 -3.84375 L 2.4375 -1.359375 Z M 4.625 -1.359375 "/></g></g></g><g fill="#ffffff" fill-opacity="1"><g transform="translate(98.765546, 10.351569)"><g><path d="M 5.25 0.125 C 4.601562 0.125 4.003906 0.00390625 3.453125 -0.234375 C 2.898438 -0.472656 2.410156 -0.804688 1.984375 -1.234375 C 1.566406 -1.660156 1.238281 -2.148438 1 -2.703125 C 0.757812 -3.253906 0.640625 -3.847656 0.640625 -4.484375 C 0.640625 -5.117188 0.757812 -5.710938 1 -6.265625 C 1.238281 -6.816406 1.566406 -7.304688 1.984375 -7.734375 C 2.410156 -8.160156 2.898438 -8.488281 3.453125 -8.71875 C 4.003906 -8.957031 4.601562 -9.078125 5.25 -9.078125 C 5.882812 -9.078125 6.476562 -8.957031 7.03125 -8.71875 C 7.582031 -8.488281 8.066406 -8.160156 8.484375 -7.734375 C 8.910156 -7.304688 9.242188 -6.816406 9.484375 -6.265625 C 9.722656 -5.710938 9.84375 -5.117188 9.84375 -4.484375 C 9.84375 -3.847656 9.722656 -3.253906 9.484375 -2.703125 C 9.242188 -2.148438 8.910156 -1.660156 8.484375 -1.234375 C 8.066406 -0.804688 7.582031 -0.472656 7.03125 -0.234375 C 6.476562 0.00390625 5.882812 0.125 5.25 0.125 Z M 5.25 -1.328125 C 5.84375 -1.328125 6.375 -1.46875 6.84375 -1.75 C 7.320312 -2.03125 7.695312 -2.40625 7.96875 -2.875 C 8.25 -3.351562 8.390625 -3.890625 8.390625 -4.484375 C 8.390625 -5.078125 8.25 -5.609375 7.96875 -6.078125 C 7.695312 -6.554688 7.320312 -6.9375 6.84375 -7.21875 C 6.375 -7.5 5.84375 -7.640625 5.25 -7.640625 C 4.65625 -7.640625 4.117188 -7.5 3.640625 -7.21875 C 3.160156 -6.9375 2.78125 -6.554688 2.5 -6.078125 C 2.226562 -5.609375 2.09375 -5.078125 2.09375 -4.484375 C 2.09375 -3.890625 2.226562 -3.351562 2.5 -2.875 C 2.78125 -2.40625 3.160156 -2.03125 3.640625 -1.75 C 4.117188 -1.46875 4.65625 -1.328125 5.25 -1.328125 Z M 5.25 -1.328125 "/></g></g></g><g fill="#ffffff" fill-opacity="1"><g transform="translate(0.969785, 23.638119)"><g><path d="M 4.078125 -3.515625 L 7.546875 -3.515625 L 7.546875 -3.359375 C 7.546875 -2.878906 7.453125 -2.429688 7.265625 -2.015625 C 7.085938 -1.609375 6.835938 -1.242188 6.515625 -0.921875 C 6.203125 -0.609375 5.835938 -0.359375 5.421875 -0.171875 C 5.015625 0.00390625 4.570312 0.09375 4.09375 0.09375 C 3.613281 0.09375 3.164062 0.00390625 2.75 -0.171875 C 2.332031 -0.359375 1.960938 -0.609375 1.640625 -0.921875 C 1.328125 -1.242188 1.082031 -1.609375 0.90625 -2.015625 C 0.726562 -2.429688 0.640625 -2.878906 0.640625 -3.359375 C 0.640625 -3.835938 0.726562 -4.285156 0.90625 -4.703125 C 1.082031 -5.117188 1.328125 -5.484375 1.640625 -5.796875 C 1.960938 -6.117188 2.332031 -6.367188 2.75 -6.546875 C 3.164062 -6.722656 3.613281 -6.8125 4.09375 -6.8125 C 4.738281 -6.8125 5.320312 -6.648438 5.84375 -6.328125 C 6.375 -6.015625 6.785156 -5.597656 7.078125 -5.078125 L 6.609375 -4.828125 C 6.367188 -5.265625 6.023438 -5.613281 5.578125 -5.875 C 5.128906 -6.144531 4.632812 -6.28125 4.09375 -6.28125 C 3.550781 -6.28125 3.0625 -6.148438 2.625 -5.890625 C 2.1875 -5.628906 1.832031 -5.273438 1.5625 -4.828125 C 1.300781 -4.390625 1.171875 -3.898438 1.171875 -3.359375 C 1.171875 -2.828125 1.300781 -2.335938 1.5625 -1.890625 C 1.832031 -1.453125 2.1875 -1.101562 2.625 -0.84375 C 3.0625 -0.582031 3.550781 -0.453125 4.09375 -0.453125 C 4.59375 -0.453125 5.050781 -0.5625 5.46875 -0.78125 C 5.882812 -1.007812 6.222656 -1.316406 6.484375 -1.703125 C 6.753906 -2.085938 6.921875 -2.519531 6.984375 -3 L 4.078125 -3 Z M 4.078125 -3.515625 "/></g></g></g><g fill="#ffffff" fill-opacity="1"><g transform="translate(9.132805, 23.638119)"><g><path d="M 5.203125 -2.3125 L 5.203125 -2.1875 L 1.0625 -2.1875 C 1.070312 -1.863281 1.15625 -1.566406 1.3125 -1.296875 C 1.476562 -1.035156 1.695312 -0.828125 1.96875 -0.671875 C 2.25 -0.515625 2.550781 -0.4375 2.875 -0.4375 C 3.257812 -0.4375 3.601562 -0.539062 3.90625 -0.75 C 4.207031 -0.957031 4.425781 -1.226562 4.5625 -1.5625 L 5.109375 -1.5625 C 4.972656 -1.09375 4.695312 -0.695312 4.28125 -0.375 C 3.875 -0.0625 3.40625 0.09375 2.875 0.09375 C 2.445312 0.09375 2.054688 -0.0078125 1.703125 -0.21875 C 1.347656 -0.425781 1.066406 -0.707031 0.859375 -1.0625 C 0.648438 -1.425781 0.546875 -1.816406 0.546875 -2.234375 C 0.546875 -2.671875 0.648438 -3.066406 0.859375 -3.421875 C 1.066406 -3.773438 1.347656 -4.054688 1.703125 -4.265625 C 2.054688 -4.472656 2.445312 -4.578125 2.875 -4.578125 C 3.300781 -4.578125 3.6875 -4.476562 4.03125 -4.28125 C 4.375 -4.082031 4.648438 -3.8125 4.859375 -3.46875 C 5.066406 -3.125 5.179688 -2.738281 5.203125 -2.3125 Z M 2.875 -4.046875 C 2.445312 -4.046875 2.070312 -3.914062 1.75 -3.65625 C 1.425781 -3.40625 1.21875 -3.078125 1.125 -2.671875 L 4.625 -2.671875 C 4.53125 -3.066406 4.320312 -3.394531 4 -3.65625 C 3.675781 -3.914062 3.300781 -4.046875 2.875 -4.046875 Z M 2.875 -4.046875 "/></g></g></g><g fill="#ffffff" fill-opacity="1"><g transform="translate(14.832361, 23.638119)"><g><path d="M 1.953125 0.09375 C 1.609375 0.09375 1.289062 0.00390625 1 -0.171875 C 0.707031 -0.359375 0.515625 -0.585938 0.421875 -0.859375 L 0.9375 -1.046875 C 0.976562 -0.867188 1.097656 -0.71875 1.296875 -0.59375 C 1.503906 -0.476562 1.722656 -0.421875 1.953125 -0.421875 C 2.179688 -0.421875 2.378906 -0.484375 2.546875 -0.609375 C 2.722656 -0.742188 2.8125 -0.929688 2.8125 -1.171875 C 2.8125 -1.390625 2.722656 -1.554688 2.546875 -1.671875 C 2.378906 -1.785156 2.160156 -1.894531 1.890625 -2 C 1.523438 -2.144531 1.222656 -2.3125 0.984375 -2.5 C 0.753906 -2.695312 0.640625 -2.976562 0.640625 -3.34375 C 0.640625 -3.613281 0.703125 -3.835938 0.828125 -4.015625 C 0.953125 -4.203125 1.113281 -4.34375 1.3125 -4.4375 C 1.507812 -4.53125 1.707031 -4.578125 1.90625 -4.578125 C 2.175781 -4.578125 2.425781 -4.507812 2.65625 -4.375 C 2.882812 -4.238281 3.046875 -4.082031 3.140625 -3.90625 L 2.6875 -3.65625 C 2.613281 -3.789062 2.503906 -3.890625 2.359375 -3.953125 C 2.222656 -4.015625 2.078125 -4.046875 1.921875 -4.046875 C 1.722656 -4.046875 1.546875 -3.988281 1.390625 -3.875 C 1.242188 -3.769531 1.171875 -3.597656 1.171875 -3.359375 C 1.171875 -3.117188 1.253906 -2.941406 1.421875 -2.828125 C 1.585938 -2.722656 1.804688 -2.613281 2.078125 -2.5 C 2.285156 -2.414062 2.484375 -2.320312 2.671875 -2.21875 C 2.859375 -2.113281 3.015625 -1.976562 3.140625 -1.8125 C 3.273438 -1.644531 3.34375 -1.425781 3.34375 -1.15625 C 3.34375 -0.789062 3.203125 -0.488281 2.921875 -0.25 C 2.648438 -0.0195312 2.328125 0.09375 1.953125 0.09375 Z M 1.953125 0.09375 "/></g></g></g><g fill="#ffffff" fill-opacity="1"><g transform="translate(18.572346, 23.638119)"><g><path d="M 2.796875 -3.96875 L 1.5625 -3.96875 L 1.5625 -1.140625 C 1.5625 -0.929688 1.632812 -0.757812 1.78125 -0.625 C 1.925781 -0.488281 2.09375 -0.421875 2.28125 -0.421875 L 2.796875 -0.421875 L 2.796875 -0.0625 C 2.734375 -0.0195312 2.648438 0.015625 2.546875 0.046875 C 2.441406 0.078125 2.335938 0.09375 2.234375 0.09375 C 1.910156 0.09375 1.628906 -0.0195312 1.390625 -0.25 C 1.160156 -0.476562 1.046875 -0.753906 1.046875 -1.078125 L 1.046875 -3.96875 L 0.296875 -3.96875 L 0.296875 -4.484375 L 1.046875 -4.484375 L 1.046875 -6.4375 L 1.5625 -6.4375 L 1.5625 -4.484375 L 2.796875 -4.484375 Z M 2.796875 -3.96875 "/></g></g></g><g fill="#ffffff" fill-opacity="1"><g transform="translate(21.786047, 23.638119)"><g><path d="M 2.875 0.09375 C 2.445312 0.09375 2.054688 -0.0078125 1.703125 -0.21875 C 1.347656 -0.425781 1.066406 -0.707031 0.859375 -1.0625 C 0.648438 -1.425781 0.546875 -1.816406 0.546875 -2.234375 C 0.546875 -2.671875 0.648438 -3.066406 0.859375 -3.421875 C 1.066406 -3.773438 1.347656 -4.054688 1.703125 -4.265625 C 2.054688 -4.472656 2.445312 -4.578125 2.875 -4.578125 C 3.3125 -4.578125 3.703125 -4.472656 4.046875 -4.265625 C 4.398438 -4.054688 4.679688 -3.773438 4.890625 -3.421875 C 5.109375 -3.066406 5.21875 -2.671875 5.21875 -2.234375 C 5.21875 -1.816406 5.109375 -1.425781 4.890625 -1.0625 C 4.679688 -0.707031 4.398438 -0.425781 4.046875 -0.21875 C 3.703125 -0.0078125 3.3125 0.09375 2.875 0.09375 Z M 2.875 -0.4375 C 3.21875 -0.4375 3.523438 -0.515625 3.796875 -0.671875 C 4.066406 -0.835938 4.28125 -1.054688 4.4375 -1.328125 C 4.601562 -1.597656 4.6875 -1.898438 4.6875 -2.234375 C 4.6875 -2.578125 4.601562 -2.882812 4.4375 -3.15625 C 4.28125 -3.425781 4.066406 -3.640625 3.796875 -3.796875 C 3.523438 -3.960938 3.21875 -4.046875 2.875 -4.046875 C 2.539062 -4.046875 2.238281 -3.960938 1.96875 -3.796875 C 1.695312 -3.640625 1.476562 -3.425781 1.3125 -3.15625 C 1.144531 -2.882812 1.0625 -2.578125 1.0625 -2.234375 C 1.0625 -1.898438 1.144531 -1.597656 1.3125 -1.328125 C 1.476562 -1.054688 1.695312 -0.835938 1.96875 -0.671875 C 2.238281 -0.515625 2.539062 -0.4375 2.875 -0.4375 Z M 2.875 -0.4375 "/></g></g></g><g fill="#ffffff" fill-opacity="1"><g transform="translate(27.530398, 23.638119)"><g><path d="M 2.921875 -4.578125 C 3.046875 -4.578125 3.164062 -4.566406 3.28125 -4.546875 L 3.28125 -4 C 3.226562 -4.019531 3.171875 -4.03125 3.109375 -4.03125 C 3.046875 -4.039062 2.984375 -4.046875 2.921875 -4.046875 C 2.640625 -4.046875 2.382812 -3.976562 2.15625 -3.84375 C 1.925781 -3.71875 1.742188 -3.546875 1.609375 -3.328125 C 1.472656 -3.109375 1.40625 -2.851562 1.40625 -2.5625 L 1.40625 0 L 0.875 0 L 0.875 -4.484375 L 1.40625 -4.484375 L 1.40625 -3.796875 C 1.5625 -4.023438 1.769531 -4.210938 2.03125 -4.359375 C 2.300781 -4.503906 2.597656 -4.578125 2.921875 -4.578125 Z M 2.921875 -4.578125 "/></g></g></g><g fill="#ffffff" fill-opacity="1"><g transform="translate(30.889663, 23.638119)"><g/></g></g><g fill="#ffffff" fill-opacity="1"><g transform="translate(33.644267, 23.638119)"><g><path d="M 4.6875 -8.25 L 5.21875 -8.25 L 5.21875 0 L 4.6875 0 L 4.6875 -0.765625 C 4.476562 -0.503906 4.21875 -0.296875 3.90625 -0.140625 C 3.59375 0.015625 3.25 0.09375 2.875 0.09375 C 2.445312 0.09375 2.054688 -0.0078125 1.703125 -0.21875 C 1.347656 -0.425781 1.066406 -0.707031 0.859375 -1.0625 C 0.648438 -1.425781 0.546875 -1.816406 0.546875 -2.234375 C 0.546875 -2.671875 0.648438 -3.066406 0.859375 -3.421875 C 1.066406 -3.773438 1.347656 -4.054688 1.703125 -4.265625 C 2.054688 -4.472656 2.445312 -4.578125 2.875 -4.578125 C 3.25 -4.578125 3.59375 -4.5 3.90625 -4.34375 C 4.21875 -4.1875 4.476562 -3.976562 4.6875 -3.71875 Z M 2.875 -0.4375 C 3.21875 -0.4375 3.523438 -0.515625 3.796875 -0.671875 C 4.066406 -0.835938 4.28125 -1.054688 4.4375 -1.328125 C 4.601562 -1.597656 4.6875 -1.898438 4.6875 -2.234375 C 4.6875 -2.578125 4.601562 -2.882812 4.4375 -3.15625 C 4.28125 -3.425781 4.066406 -3.640625 3.796875 -3.796875 C 3.523438 -3.960938 3.21875 -4.046875 2.875 -4.046875 C 2.539062 -4.046875 2.238281 -3.960938 1.96875 -3.796875 C 1.695312 -3.640625 1.476562 -3.425781 1.3125 -3.15625 C 1.144531 -2.882812 1.0625 -2.578125 1.0625 -2.234375 C 1.0625 -1.898438 1.144531 -1.597656 1.3125 -1.328125 C 1.476562 -1.054688 1.695312 -0.835938 1.96875 -0.671875 C 2.238281 -0.515625 2.539062 -0.4375 2.875 -0.4375 Z M 2.875 -0.4375 "/></g></g></g><g fill="#ffffff" fill-opacity="1"><g transform="translate(39.724542, 23.638119)"><g><path d="M 5.203125 -2.3125 L 5.203125 -2.1875 L 1.0625 -2.1875 C 1.070312 -1.863281 1.15625 -1.566406 1.3125 -1.296875 C 1.476562 -1.035156 1.695312 -0.828125 1.96875 -0.671875 C 2.25 -0.515625 2.550781 -0.4375 2.875 -0.4375 C 3.257812 -0.4375 3.601562 -0.539062 3.90625 -0.75 C 4.207031 -0.957031 4.425781 -1.226562 4.5625 -1.5625 L 5.109375 -1.5625 C 4.972656 -1.09375 4.695312 -0.695312 4.28125 -0.375 C 3.875 -0.0625 3.40625 0.09375 2.875 0.09375 C 2.445312 0.09375 2.054688 -0.0078125 1.703125 -0.21875 C 1.347656 -0.425781 1.066406 -0.707031 0.859375 -1.0625 C 0.648438 -1.425781 0.546875 -1.816406 0.546875 -2.234375 C 0.546875 -2.671875 0.648438 -3.066406 0.859375 -3.421875 C 1.066406 -3.773438 1.347656 -4.054688 1.703125 -4.265625 C 2.054688 -4.472656 2.445312 -4.578125 2.875 -4.578125 C 3.300781 -4.578125 3.6875 -4.476562 4.03125 -4.28125 C 4.375 -4.082031 4.648438 -3.8125 4.859375 -3.46875 C 5.066406 -3.125 5.179688 -2.738281 5.203125 -2.3125 Z M 2.875 -4.046875 C 2.445312 -4.046875 2.070312 -3.914062 1.75 -3.65625 C 1.425781 -3.40625 1.21875 -3.078125 1.125 -2.671875 L 4.625 -2.671875 C 4.53125 -3.066406 4.320312 -3.394531 4 -3.65625 C 3.675781 -3.914062 3.300781 -4.046875 2.875 -4.046875 Z M 2.875 -4.046875 "/></g></g></g><g fill="#ffffff" fill-opacity="1"><g transform="translate(45.424098, 23.638119)"><g/></g></g><g fill="#ffffff" fill-opacity="1"><g transform="translate(48.178702, 23.638119)"><g><path d="M 3.421875 -3.109375 L 5.421875 0 L 4.8125 0 L 2.875 -3.078125 L 1.40625 -3.078125 L 1.40625 0 L 0.875 0 L 0.875 -6.71875 L 3.171875 -6.71875 C 3.515625 -6.71875 3.820312 -6.632812 4.09375 -6.46875 C 4.375 -6.3125 4.597656 -6.09375 4.765625 -5.8125 C 4.929688 -5.539062 5.015625 -5.234375 5.015625 -4.890625 C 5.015625 -4.578125 4.941406 -4.289062 4.796875 -4.03125 C 4.648438 -3.78125 4.457031 -3.570312 4.21875 -3.40625 C 3.988281 -3.238281 3.722656 -3.140625 3.421875 -3.109375 Z M 1.40625 -3.59375 L 3.140625 -3.59375 C 3.515625 -3.59375 3.828125 -3.71875 4.078125 -3.96875 C 4.335938 -4.21875 4.46875 -4.523438 4.46875 -4.890625 C 4.46875 -5.265625 4.335938 -5.570312 4.078125 -5.8125 C 3.828125 -6.0625 3.515625 -6.1875 3.140625 -6.1875 L 1.40625 -6.1875 Z M 1.40625 -3.59375 "/></g></g></g><g fill="#ffffff" fill-opacity="1"><g transform="translate(53.755086, 23.638119)"><g><path d="M 5.203125 -2.3125 L 5.203125 -2.1875 L 1.0625 -2.1875 C 1.070312 -1.863281 1.15625 -1.566406 1.3125 -1.296875 C 1.476562 -1.035156 1.695312 -0.828125 1.96875 -0.671875 C 2.25 -0.515625 2.550781 -0.4375 2.875 -0.4375 C 3.257812 -0.4375 3.601562 -0.539062 3.90625 -0.75 C 4.207031 -0.957031 4.425781 -1.226562 4.5625 -1.5625 L 5.109375 -1.5625 C 4.972656 -1.09375 4.695312 -0.695312 4.28125 -0.375 C 3.875 -0.0625 3.40625 0.09375 2.875 0.09375 C 2.445312 0.09375 2.054688 -0.0078125 1.703125 -0.21875 C 1.347656 -0.425781 1.066406 -0.707031 0.859375 -1.0625 C 0.648438 -1.425781 0.546875 -1.816406 0.546875 -2.234375 C 0.546875 -2.671875 0.648438 -3.066406 0.859375 -3.421875 C 1.066406 -3.773438 1.347656 -4.054688 1.703125 -4.265625 C 2.054688 -4.472656 2.445312 -4.578125 2.875 -4.578125 C 3.300781 -4.578125 3.6875 -4.476562 4.03125 -4.28125 C 4.375 -4.082031 4.648438 -3.8125 4.859375 -3.46875 C 5.066406 -3.125 5.179688 -2.738281 5.203125 -2.3125 Z M 2.875 -4.046875 C 2.445312 -4.046875 2.070312 -3.914062 1.75 -3.65625 C 1.425781 -3.40625 1.21875 -3.078125 1.125 -2.671875 L 4.625 -2.671875 C 4.53125 -3.066406 4.320312 -3.394531 4 -3.65625 C 3.675781 -3.914062 3.300781 -4.046875 2.875 -4.046875 Z M 2.875 -4.046875 "/></g></g></g><g fill="#ffffff" fill-opacity="1"><g transform="translate(59.454642, 23.638119)"><g><path d="M 5.6875 -0.421875 L 6 -0.421875 L 6 0 C 5.90625 0.0625 5.789062 0.09375 5.65625 0.09375 C 5.394531 0.09375 5.175781 0.0078125 5 -0.15625 C 4.832031 -0.320312 4.734375 -0.539062 4.703125 -0.8125 C 4.492188 -0.53125 4.226562 -0.304688 3.90625 -0.140625 C 3.59375 0.015625 3.25 0.09375 2.875 0.09375 C 2.445312 0.09375 2.054688 -0.0078125 1.703125 -0.21875 C 1.347656 -0.425781 1.066406 -0.707031 0.859375 -1.0625 C 0.648438 -1.425781 0.546875 -1.816406 0.546875 -2.234375 C 0.546875 -2.671875 0.648438 -3.066406 0.859375 -3.421875 C 1.066406 -3.773438 1.347656 -4.054688 1.703125 -4.265625 C 2.054688 -4.472656 2.445312 -4.578125 2.875 -4.578125 C 3.25 -4.578125 3.59375 -4.5 3.90625 -4.34375 C 4.21875 -4.1875 4.476562 -3.972656 4.6875 -3.703125 L 4.6875 -4.484375 L 5.21875 -4.484375 L 5.21875 -1.046875 C 5.21875 -0.835938 5.257812 -0.679688 5.34375 -0.578125 C 5.4375 -0.472656 5.550781 -0.421875 5.6875 -0.421875 Z M 2.875 -0.4375 C 3.21875 -0.4375 3.523438 -0.515625 3.796875 -0.671875 C 4.066406 -0.835938 4.28125 -1.054688 4.4375 -1.328125 C 4.601562 -1.597656 4.6875 -1.898438 4.6875 -2.234375 C 4.6875 -2.578125 4.601562 -2.882812 4.4375 -3.15625 C 4.28125 -3.425781 4.066406 -3.640625 3.796875 -3.796875 C 3.523438 -3.960938 3.21875 -4.046875 2.875 -4.046875 C 2.539062 -4.046875 2.238281 -3.960938 1.96875 -3.796875 C 1.695312 -3.640625 1.476562 -3.425781 1.3125 -3.15625 C 1.144531 -2.882812 1.0625 -2.578125 1.0625 -2.234375 C 1.0625 -1.898438 1.144531 -1.597656 1.3125 -1.328125 C 1.476562 -1.054688 1.695312 -0.835938 1.96875 -0.671875 C 2.238281 -0.515625 2.539062 -0.4375 2.875 -0.4375 Z M 2.875 -0.4375 "/></g></g></g><g fill="#ffffff" fill-opacity="1"><g transform="translate(65.568511, 23.638119)"><g><path d="M 2.875 0.09375 C 2.445312 0.09375 2.054688 -0.0078125 1.703125 -0.21875 C 1.347656 -0.425781 1.066406 -0.707031 0.859375 -1.0625 C 0.648438 -1.425781 0.546875 -1.816406 0.546875 -2.234375 C 0.546875 -2.671875 0.648438 -3.066406 0.859375 -3.421875 C 1.066406 -3.773438 1.347656 -4.054688 1.703125 -4.265625 C 2.054688 -4.472656 2.445312 -4.578125 2.875 -4.578125 C 3.382812 -4.578125 3.835938 -4.425781 4.234375 -4.125 C 4.640625 -3.832031 4.921875 -3.457031 5.078125 -3 L 4.53125 -3 C 4.382812 -3.3125 4.160156 -3.5625 3.859375 -3.75 C 3.566406 -3.945312 3.238281 -4.046875 2.875 -4.046875 C 2.550781 -4.046875 2.25 -3.960938 1.96875 -3.796875 C 1.695312 -3.640625 1.476562 -3.425781 1.3125 -3.15625 C 1.144531 -2.894531 1.0625 -2.585938 1.0625 -2.234375 C 1.0625 -1.898438 1.144531 -1.597656 1.3125 -1.328125 C 1.476562 -1.054688 1.695312 -0.835938 1.96875 -0.671875 C 2.25 -0.515625 2.550781 -0.4375 2.875 -0.4375 C 3.238281 -0.4375 3.566406 -0.53125 3.859375 -0.71875 C 4.160156 -0.914062 4.382812 -1.171875 4.53125 -1.484375 L 5.078125 -1.484375 C 4.921875 -1.023438 4.640625 -0.644531 4.234375 -0.34375 C 3.835938 -0.0507812 3.382812 0.09375 2.875 0.09375 Z M 2.875 0.09375 "/></g></g></g><g fill="#ffffff" fill-opacity="1"><g transform="translate(71.010521, 23.638119)"><g><path d="M 2.796875 -3.96875 L 1.5625 -3.96875 L 1.5625 -1.140625 C 1.5625 -0.929688 1.632812 -0.757812 1.78125 -0.625 C 1.925781 -0.488281 2.09375 -0.421875 2.28125 -0.421875 L 2.796875 -0.421875 L 2.796875 -0.0625 C 2.734375 -0.0195312 2.648438 0.015625 2.546875 0.046875 C 2.441406 0.078125 2.335938 0.09375 2.234375 0.09375 C 1.910156 0.09375 1.628906 -0.0195312 1.390625 -0.25 C 1.160156 -0.476562 1.046875 -0.753906 1.046875 -1.078125 L 1.046875 -3.96875 L 0.296875 -3.96875 L 0.296875 -4.484375 L 1.046875 -4.484375 L 1.046875 -6.4375 L 1.5625 -6.4375 L 1.5625 -4.484375 L 2.796875 -4.484375 Z M 2.796875 -3.96875 "/></g></g></g><g fill="#ffffff" fill-opacity="1"><g transform="translate(74.224221, 23.638119)"><g><path d="M 1.234375 -5.34375 C 1.117188 -5.34375 1.019531 -5.378906 0.9375 -5.453125 C 0.851562 -5.535156 0.8125 -5.632812 0.8125 -5.75 C 0.8125 -5.875 0.851562 -5.972656 0.9375 -6.046875 C 1.019531 -6.128906 1.117188 -6.171875 1.234375 -6.171875 C 1.347656 -6.171875 1.441406 -6.128906 1.515625 -6.046875 C 1.597656 -5.972656 1.640625 -5.875 1.640625 -5.75 C 1.640625 -5.632812 1.597656 -5.535156 1.515625 -5.453125 C 1.441406 -5.378906 1.347656 -5.34375 1.234375 -5.34375 Z M 0.96875 0 L 0.96875 -4.484375 L 1.484375 -4.484375 L 1.484375 0 Z M 0.96875 0 "/></g></g></g><g fill="#ffffff" fill-opacity="1"><g transform="translate(76.687685, 23.638119)"><g><path d="M 3.703125 -4.484375 L 4.265625 -4.484375 L 2.46875 0 L 1.953125 0 L 0.15625 -4.484375 L 0.71875 -4.484375 L 2.203125 -0.625 Z M 3.703125 -4.484375 "/></g></g></g><g fill="#ffffff" fill-opacity="1"><g transform="translate(81.099519, 23.638119)"><g><path d="M 2.875 0.09375 C 2.445312 0.09375 2.054688 -0.0078125 1.703125 -0.21875 C 1.347656 -0.425781 1.066406 -0.707031 0.859375 -1.0625 C 0.648438 -1.425781 0.546875 -1.816406 0.546875 -2.234375 C 0.546875 -2.671875 0.648438 -3.066406 0.859375 -3.421875 C 1.066406 -3.773438 1.347656 -4.054688 1.703125 -4.265625 C 2.054688 -4.472656 2.445312 -4.578125 2.875 -4.578125 C 3.3125 -4.578125 3.703125 -4.472656 4.046875 -4.265625 C 4.398438 -4.054688 4.679688 -3.773438 4.890625 -3.421875 C 5.109375 -3.066406 5.21875 -2.671875 5.21875 -2.234375 C 5.21875 -1.816406 5.109375 -1.425781 4.890625 -1.0625 C 4.679688 -0.707031 4.398438 -0.425781 4.046875 -0.21875 C 3.703125 -0.0078125 3.3125 0.09375 2.875 0.09375 Z M 2.875 -0.4375 C 3.21875 -0.4375 3.523438 -0.515625 3.796875 -0.671875 C 4.066406 -0.835938 4.28125 -1.054688 4.4375 -1.328125 C 4.601562 -1.597656 4.6875 -1.898438 4.6875 -2.234375 C 4.6875 -2.578125 4.601562 -2.882812 4.4375 -3.15625 C 4.28125 -3.425781 4.066406 -3.640625 3.796875 -3.796875 C 3.523438 -3.960938 3.21875 -4.046875 2.875 -4.046875 C 2.539062 -4.046875 2.238281 -3.960938 1.96875 -3.796875 C 1.695312 -3.640625 1.476562 -3.425781 1.3125 -3.15625 C 1.144531 -2.882812 1.0625 -2.578125 1.0625 -2.234375 C 1.0625 -1.898438 1.144531 -1.597656 1.3125 -1.328125 C 1.476562 -1.054688 1.695312 -0.835938 1.96875 -0.671875 C 2.238281 -0.515625 2.539062 -0.4375 2.875 -0.4375 Z M 2.875 -0.4375 "/></g></g></g><g fill="#ffffff" fill-opacity="1"><g transform="translate(86.843869, 23.638119)"><g><path d="M 1.953125 0.09375 C 1.609375 0.09375 1.289062 0.00390625 1 -0.171875 C 0.707031 -0.359375 0.515625 -0.585938 0.421875 -0.859375 L 0.9375 -1.046875 C 0.976562 -0.867188 1.097656 -0.71875 1.296875 -0.59375 C 1.503906 -0.476562 1.722656 -0.421875 1.953125 -0.421875 C 2.179688 -0.421875 2.378906 -0.484375 2.546875 -0.609375 C 2.722656 -0.742188 2.8125 -0.929688 2.8125 -1.171875 C 2.8125 -1.390625 2.722656 -1.554688 2.546875 -1.671875 C 2.378906 -1.785156 2.160156 -1.894531 1.890625 -2 C 1.523438 -2.144531 1.222656 -2.3125 0.984375 -2.5 C 0.753906 -2.695312 0.640625 -2.976562 0.640625 -3.34375 C 0.640625 -3.613281 0.703125 -3.835938 0.828125 -4.015625 C 0.953125 -4.203125 1.113281 -4.34375 1.3125 -4.4375 C 1.507812 -4.53125 1.707031 -4.578125 1.90625 -4.578125 C 2.175781 -4.578125 2.425781 -4.507812 2.65625 -4.375 C 2.882812 -4.238281 3.046875 -4.082031 3.140625 -3.90625 L 2.6875 -3.65625 C 2.613281 -3.789062 2.503906 -3.890625 2.359375 -3.953125 C 2.222656 -4.015625 2.078125 -4.046875 1.921875 -4.046875 C 1.722656 -4.046875 1.546875 -3.988281 1.390625 -3.875 C 1.242188 -3.769531 1.171875 -3.597656 1.171875 -3.359375 C 1.171875 -3.117188 1.253906 -2.941406 1.421875 -2.828125 C 1.585938 -2.722656 1.804688 -2.613281 2.078125 -2.5 C 2.285156 -2.414062 2.484375 -2.320312 2.671875 -2.21875 C 2.859375 -2.113281 3.015625 -1.976562 3.140625 -1.8125 C 3.273438 -1.644531 3.34375 -1.425781 3.34375 -1.15625 C 3.34375 -0.789062 3.203125 -0.488281 2.921875 -0.25 C 2.648438 -0.0195312 2.328125 0.09375 1.953125 0.09375 Z M 1.953125 0.09375 "/></g></g></g><g fill="#ffffff" fill-opacity="1"><g transform="translate(90.583854, 23.638119)"><g/></g></g><g fill="#ffffff" fill-opacity="1"><g transform="translate(93.338458, 23.638119)"><g><path d="M 4.03125 -3.40625 C 4.375 -3.289062 4.660156 -3.085938 4.890625 -2.796875 C 5.128906 -2.503906 5.25 -2.160156 5.25 -1.765625 C 5.25 -1.421875 5.164062 -1.113281 5 -0.84375 C 4.84375 -0.582031 4.628906 -0.375 4.359375 -0.21875 C 4.085938 -0.0703125 3.785156 0 3.453125 0 L 0.875 0 L 0.875 -6.71875 L 3.234375 -6.71875 C 3.566406 -6.71875 3.867188 -6.640625 4.140625 -6.484375 C 4.410156 -6.335938 4.625 -6.128906 4.78125 -5.859375 C 4.945312 -5.597656 5.03125 -5.296875 5.03125 -4.953125 C 5.03125 -4.597656 4.9375 -4.285156 4.75 -4.015625 C 4.5625 -3.742188 4.320312 -3.539062 4.03125 -3.40625 Z M 4.5 -4.921875 C 4.5 -5.285156 4.367188 -5.585938 4.109375 -5.828125 C 3.847656 -6.066406 3.535156 -6.1875 3.171875 -6.1875 L 1.40625 -6.1875 L 1.40625 -3.625 L 3.171875 -3.625 C 3.546875 -3.625 3.859375 -3.75 4.109375 -4 C 4.367188 -4.25 4.5 -4.554688 4.5 -4.921875 Z M 3.390625 -0.53125 C 3.765625 -0.53125 4.078125 -0.648438 4.328125 -0.890625 C 4.578125 -1.140625 4.703125 -1.445312 4.703125 -1.8125 C 4.703125 -2.175781 4.578125 -2.484375 4.328125 -2.734375 C 4.078125 -2.984375 3.765625 -3.109375 3.390625 -3.109375 L 1.40625 -3.109375 L 1.40625 -0.53125 Z M 3.390625 -0.53125 "/></g></g></g><g fill="#ffffff" fill-opacity="1"><g transform="translate(99.172388, 23.638119)"><g><path d="M 1.234375 -5.34375 C 1.117188 -5.34375 1.019531 -5.378906 0.9375 -5.453125 C 0.851562 -5.535156 0.8125 -5.632812 0.8125 -5.75 C 0.8125 -5.875 0.851562 -5.972656 0.9375 -6.046875 C 1.019531 -6.128906 1.117188 -6.171875 1.234375 -6.171875 C 1.347656 -6.171875 1.441406 -6.128906 1.515625 -6.046875 C 1.597656 -5.972656 1.640625 -5.875 1.640625 -5.75 C 1.640625 -5.632812 1.597656 -5.535156 1.515625 -5.453125 C 1.441406 -5.378906 1.347656 -5.34375 1.234375 -5.34375 Z M 0.96875 0 L 0.96875 -4.484375 L 1.484375 -4.484375 L 1.484375 0 Z M 0.96875 0 "/></g></g></g><g fill="#ffffff" fill-opacity="1"><g transform="translate(101.635851, 23.638119)"><g><path d="M 2.875 0.09375 C 2.445312 0.09375 2.054688 -0.0078125 1.703125 -0.21875 C 1.347656 -0.425781 1.066406 -0.707031 0.859375 -1.0625 C 0.648438 -1.425781 0.546875 -1.816406 0.546875 -2.234375 C 0.546875 -2.671875 0.648438 -3.066406 0.859375 -3.421875 C 1.066406 -3.773438 1.347656 -4.054688 1.703125 -4.265625 C 2.054688 -4.472656 2.445312 -4.578125 2.875 -4.578125 C 3.3125 -4.578125 3.703125 -4.472656 4.046875 -4.265625 C 4.398438 -4.054688 4.679688 -3.773438 4.890625 -3.421875 C 5.109375 -3.066406 5.21875 -2.671875 5.21875 -2.234375 C 5.21875 -1.816406 5.109375 -1.425781 4.890625 -1.0625 C 4.679688 -0.707031 4.398438 -0.425781 4.046875 -0.21875 C 3.703125 -0.0078125 3.3125 0.09375 2.875 0.09375 Z M 2.875 -0.4375 C 3.21875 -0.4375 3.523438 -0.515625 3.796875 -0.671875 C 4.066406 -0.835938 4.28125 -1.054688 4.4375 -1.328125 C 4.601562 -1.597656 4.6875 -1.898438 4.6875 -2.234375 C 4.6875 -2.578125 4.601562 -2.882812 4.4375 -3.15625 C 4.28125 -3.425781 4.066406 -3.640625 3.796875 -3.796875 C 3.523438 -3.960938 3.21875 -4.046875 2.875 -4.046875 C 2.539062 -4.046875 2.238281 -3.960938 1.96875 -3.796875 C 1.695312 -3.640625 1.476562 -3.425781 1.3125 -3.15625 C 1.144531 -2.882812 1.0625 -2.578125 1.0625 -2.234375 C 1.0625 -1.898438 1.144531 -1.597656 1.3125 -1.328125 C 1.476562 -1.054688 1.695312 -0.835938 1.96875 -0.671875 C 2.238281 -0.515625 2.539062 -0.4375 2.875 -0.4375 Z M 2.875 -0.4375 "/></g></g></g><g fill="#ffffff" fill-opacity="1"><g transform="translate(107.380202, 23.638119)"><g><path d="M 0.875 0 L 0.875 -8.25 L 1.40625 -8.25 L 1.40625 0 Z M 0.875 0 "/></g></g></g><g fill="#ffffff" fill-opacity="1"><g transform="translate(109.653306, 23.638119)"><g><path d="M 2.640625 -5.078125 L 3.59375 -6.71875 L 4.25 -6.71875 L 3.03125 -5.078125 Z M 2.875 0.09375 C 2.445312 0.09375 2.054688 -0.0078125 1.703125 -0.21875 C 1.347656 -0.425781 1.066406 -0.707031 0.859375 -1.0625 C 0.648438 -1.425781 0.546875 -1.816406 0.546875 -2.234375 C 0.546875 -2.671875 0.648438 -3.066406 0.859375 -3.421875 C 1.066406 -3.773438 1.347656 -4.054688 1.703125 -4.265625 C 2.054688 -4.472656 2.445312 -4.578125 2.875 -4.578125 C 3.3125 -4.578125 3.703125 -4.472656 4.046875 -4.265625 C 4.398438 -4.054688 4.679688 -3.773438 4.890625 -3.421875 C 5.109375 -3.066406 5.21875 -2.671875 5.21875 -2.234375 C 5.21875 -1.816406 5.109375 -1.425781 4.890625 -1.0625 C 4.679688 -0.707031 4.398438 -0.425781 4.046875 -0.21875 C 3.703125 -0.0078125 3.3125 0.09375 2.875 0.09375 Z M 2.875 -0.4375 C 3.21875 -0.4375 3.523438 -0.515625 3.796875 -0.671875 C 4.066406 -0.835938 4.28125 -1.054688 4.4375 -1.328125 C 4.601562 -1.597656 4.6875 -1.898438 4.6875 -2.234375 C 4.6875 -2.578125 4.601562 -2.882812 4.4375 -3.15625 C 4.28125 -3.425781 4.066406 -3.640625 3.796875 -3.796875 C 3.523438 -3.960938 3.21875 -4.046875 2.875 -4.046875 C 2.539062 -4.046875 2.238281 -3.960938 1.96875 -3.796875 C 1.695312 -3.640625 1.476562 -3.425781 1.3125 -3.15625 C 1.144531 -2.882812 1.0625 -2.578125 1.0625 -2.234375 C 1.0625 -1.898438 1.144531 -1.597656 1.3125 -1.328125 C 1.476562 -1.054688 1.695312 -0.835938 1.96875 -0.671875 C 2.238281 -0.515625 2.539062 -0.4375 2.875 -0.4375 Z M 2.875 -0.4375 "/></g></g></g><g fill="#ffffff" fill-opacity="1"><g transform="translate(115.397657, 23.638119)"><g><path d="M 4.6875 -4.484375 L 5.21875 -4.484375 L 5.21875 0.375 C 5.21875 0.800781 5.109375 1.191406 4.890625 1.546875 C 4.679688 1.898438 4.398438 2.179688 4.046875 2.390625 C 3.703125 2.609375 3.3125 2.71875 2.875 2.71875 C 2.394531 2.71875 1.960938 2.582031 1.578125 2.3125 C 1.191406 2.050781 0.910156 1.707031 0.734375 1.28125 L 1.203125 1.046875 C 1.335938 1.390625 1.554688 1.664062 1.859375 1.875 C 2.171875 2.082031 2.507812 2.1875 2.875 2.1875 C 3.21875 2.1875 3.523438 2.101562 3.796875 1.9375 C 4.066406 1.78125 4.28125 1.5625 4.4375 1.28125 C 4.601562 1.007812 4.6875 0.707031 4.6875 0.375 L 4.6875 -0.765625 C 4.476562 -0.503906 4.21875 -0.296875 3.90625 -0.140625 C 3.59375 0.015625 3.25 0.09375 2.875 0.09375 C 2.445312 0.09375 2.054688 -0.0078125 1.703125 -0.21875 C 1.347656 -0.425781 1.066406 -0.707031 0.859375 -1.0625 C 0.648438 -1.425781 0.546875 -1.816406 0.546875 -2.234375 C 0.546875 -2.671875 0.648438 -3.066406 0.859375 -3.421875 C 1.066406 -3.773438 1.347656 -4.054688 1.703125 -4.265625 C 2.054688 -4.472656 2.445312 -4.578125 2.875 -4.578125 C 3.25 -4.578125 3.59375 -4.5 3.90625 -4.34375 C 4.21875 -4.1875 4.476562 -3.976562 4.6875 -3.71875 Z M 2.875 -0.4375 C 3.21875 -0.4375 3.523438 -0.515625 3.796875 -0.671875 C 4.066406 -0.835938 4.28125 -1.054688 4.4375 -1.328125 C 4.601562 -1.609375 4.6875 -1.910156 4.6875 -2.234375 C 4.6875 -2.578125 4.601562 -2.882812 4.4375 -3.15625 C 4.28125 -3.425781 4.066406 -3.640625 3.796875 -3.796875 C 3.523438 -3.960938 3.21875 -4.046875 2.875 -4.046875 C 2.539062 -4.046875 2.238281 -3.960938 1.96875 -3.796875 C 1.695312 -3.640625 1.476562 -3.425781 1.3125 -3.15625 C 1.144531 -2.882812 1.0625 -2.578125 1.0625 -2.234375 C 1.0625 -1.910156 1.144531 -1.609375 1.3125 -1.328125 C 1.476562 -1.054688 1.695312 -0.835938 1.96875 -0.671875 C 2.238281 -0.515625 2.539062 -0.4375 2.875 -0.4375 Z M 2.875 -0.4375 "/></g></g></g><g fill="#ffffff" fill-opacity="1"><g transform="translate(121.477933, 23.638119)"><g><path d="M 1.234375 -5.34375 C 1.117188 -5.34375 1.019531 -5.378906 0.9375 -5.453125 C 0.851562 -5.535156 0.8125 -5.632812 0.8125 -5.75 C 0.8125 -5.875 0.851562 -5.972656 0.9375 -6.046875 C 1.019531 -6.128906 1.117188 -6.171875 1.234375 -6.171875 C 1.347656 -6.171875 1.441406 -6.128906 1.515625 -6.046875 C 1.597656 -5.972656 1.640625 -5.875 1.640625 -5.75 C 1.640625 -5.632812 1.597656 -5.535156 1.515625 -5.453125 C 1.441406 -5.378906 1.347656 -5.34375 1.234375 -5.34375 Z M 0.96875 0 L 0.96875 -4.484375 L 1.484375 -4.484375 L 1.484375 0 Z M 0.96875 0 "/></g></g></g><g fill="#ffffff" fill-opacity="1"><g transform="translate(123.941396, 23.638119)"><g><path d="M 2.875 0.09375 C 2.445312 0.09375 2.054688 -0.0078125 1.703125 -0.21875 C 1.347656 -0.425781 1.066406 -0.707031 0.859375 -1.0625 C 0.648438 -1.425781 0.546875 -1.816406 0.546875 -2.234375 C 0.546875 -2.671875 0.648438 -3.066406 0.859375 -3.421875 C 1.066406 -3.773438 1.347656 -4.054688 1.703125 -4.265625 C 2.054688 -4.472656 2.445312 -4.578125 2.875 -4.578125 C 3.382812 -4.578125 3.835938 -4.425781 4.234375 -4.125 C 4.640625 -3.832031 4.921875 -3.457031 5.078125 -3 L 4.53125 -3 C 4.382812 -3.3125 4.160156 -3.5625 3.859375 -3.75 C 3.566406 -3.945312 3.238281 -4.046875 2.875 -4.046875 C 2.550781 -4.046875 2.25 -3.960938 1.96875 -3.796875 C 1.695312 -3.640625 1.476562 -3.425781 1.3125 -3.15625 C 1.144531 -2.894531 1.0625 -2.585938 1.0625 -2.234375 C 1.0625 -1.898438 1.144531 -1.597656 1.3125 -1.328125 C 1.476562 -1.054688 1.695312 -0.835938 1.96875 -0.671875 C 2.25 -0.515625 2.550781 -0.4375 2.875 -0.4375 C 3.238281 -0.4375 3.566406 -0.53125 3.859375 -0.71875 C 4.160156 -0.914062 4.382812 -1.171875 4.53125 -1.484375 L 5.078125 -1.484375 C 4.921875 -1.023438 4.640625 -0.644531 4.234375 -0.34375 C 3.835938 -0.0507812 3.382812 0.09375 2.875 0.09375 Z M 2.875 0.09375 "/></g></g></g><g fill="#ffffff" fill-opacity="1"><g transform="translate(129.383406, 23.638119)"><g><path d="M 2.875 0.09375 C 2.445312 0.09375 2.054688 -0.0078125 1.703125 -0.21875 C 1.347656 -0.425781 1.066406 -0.707031 0.859375 -1.0625 C 0.648438 -1.425781 0.546875 -1.816406 0.546875 -2.234375 C 0.546875 -2.671875 0.648438 -3.066406 0.859375 -3.421875 C 1.066406 -3.773438 1.347656 -4.054688 1.703125 -4.265625 C 2.054688 -4.472656 2.445312 -4.578125 2.875 -4.578125 C 3.3125 -4.578125 3.703125 -4.472656 4.046875 -4.265625 C 4.398438 -4.054688 4.679688 -3.773438 4.890625 -3.421875 C 5.109375 -3.066406 5.21875 -2.671875 5.21875 -2.234375 C 5.21875 -1.816406 5.109375 -1.425781 4.890625 -1.0625 C 4.679688 -0.707031 4.398438 -0.425781 4.046875 -0.21875 C 3.703125 -0.0078125 3.3125 0.09375 2.875 0.09375 Z M 2.875 -0.4375 C 3.21875 -0.4375 3.523438 -0.515625 3.796875 -0.671875 C 4.066406 -0.835938 4.28125 -1.054688 4.4375 -1.328125 C 4.601562 -1.597656 4.6875 -1.898438 4.6875 -2.234375 C 4.6875 -2.578125 4.601562 -2.882812 4.4375 -3.15625 C 4.28125 -3.425781 4.066406 -3.640625 3.796875 -3.796875 C 3.523438 -3.960938 3.21875 -4.046875 2.875 -4.046875 C 2.539062 -4.046875 2.238281 -3.960938 1.96875 -3.796875 C 1.695312 -3.640625 1.476562 -3.425781 1.3125 -3.15625 C 1.144531 -2.882812 1.0625 -2.578125 1.0625 -2.234375 C 1.0625 -1.898438 1.144531 -1.597656 1.3125 -1.328125 C 1.476562 -1.054688 1.695312 -0.835938 1.96875 -0.671875 C 2.238281 -0.515625 2.539062 -0.4375 2.875 -0.4375 Z M 2.875 -0.4375 "/></g></g></g><g fill="#ffffff" fill-opacity="1"><g transform="translate(135.127757, 23.638119)"><g><path d="M 1.953125 0.09375 C 1.609375 0.09375 1.289062 0.00390625 1 -0.171875 C 0.707031 -0.359375 0.515625 -0.585938 0.421875 -0.859375 L 0.9375 -1.046875 C 0.976562 -0.867188 1.097656 -0.71875 1.296875 -0.59375 C 1.503906 -0.476562 1.722656 -0.421875 1.953125 -0.421875 C 2.179688 -0.421875 2.378906 -0.484375 2.546875 -0.609375 C 2.722656 -0.742188 2.8125 -0.929688 2.8125 -1.171875 C 2.8125 -1.390625 2.722656 -1.554688 2.546875 -1.671875 C 2.378906 -1.785156 2.160156 -1.894531 1.890625 -2 C 1.523438 -2.144531 1.222656 -2.3125 0.984375 -2.5 C 0.753906 -2.695312 0.640625 -2.976562 0.640625 -3.34375 C 0.640625 -3.613281 0.703125 -3.835938 0.828125 -4.015625 C 0.953125 -4.203125 1.113281 -4.34375 1.3125 -4.4375 C 1.507812 -4.53125 1.707031 -4.578125 1.90625 -4.578125 C 2.175781 -4.578125 2.425781 -4.507812 2.65625 -4.375 C 2.882812 -4.238281 3.046875 -4.082031 3.140625 -3.90625 L 2.6875 -3.65625 C 2.613281 -3.789062 2.503906 -3.890625 2.359375 -3.953125 C 2.222656 -4.015625 2.078125 -4.046875 1.921875 -4.046875 C 1.722656 -4.046875 1.546875 -3.988281 1.390625 -3.875 C 1.242188 -3.769531 1.171875 -3.597656 1.171875 -3.359375 C 1.171875 -3.117188 1.253906 -2.941406 1.421875 -2.828125 C 1.585938 -2.722656 1.804688 -2.613281 2.078125 -2.5 C 2.285156 -2.414062 2.484375 -2.320312 2.671875 -2.21875 C 2.859375 -2.113281 3.015625 -1.976562 3.140625 -1.8125 C 3.273438 -1.644531 3.34375 -1.425781 3.34375 -1.15625 C 3.34375 -0.789062 3.203125 -0.488281 2.921875 -0.25 C 2.648438 -0.0195312 2.328125 0.09375 1.953125 0.09375 Z M 1.953125 0.09375 "/></g></g></g><g fill="#ffffff" fill-opacity="1"><g transform="translate(138.867742, 23.638119)"><g/></g></g><g fill="#ffffff" fill-opacity="1"><g transform="translate(141.622345, 23.638119)"><g><path d="M 4.0625 0.09375 C 3.59375 0.09375 3.148438 0.00390625 2.734375 -0.171875 C 2.316406 -0.359375 1.945312 -0.609375 1.625 -0.921875 C 1.3125 -1.242188 1.0625 -1.609375 0.875 -2.015625 C 0.695312 -2.429688 0.609375 -2.878906 0.609375 -3.359375 C 0.609375 -3.835938 0.695312 -4.285156 0.875 -4.703125 C 1.0625 -5.117188 1.3125 -5.484375 1.625 -5.796875 C 1.945312 -6.117188 2.316406 -6.367188 2.734375 -6.546875 C 3.148438 -6.722656 3.59375 -6.8125 4.0625 -6.8125 C 4.539062 -6.8125 4.988281 -6.722656 5.40625 -6.546875 C 5.820312 -6.367188 6.1875 -6.117188 6.5 -5.796875 C 6.820312 -5.484375 7.070312 -5.117188 7.25 -4.703125 C 7.425781 -4.285156 7.515625 -3.835938 7.515625 -3.359375 C 7.515625 -2.878906 7.425781 -2.429688 7.25 -2.015625 C 7.070312 -1.609375 6.820312 -1.242188 6.5 -0.921875 C 6.1875 -0.609375 5.820312 -0.359375 5.40625 -0.171875 C 4.988281 0.00390625 4.539062 0.09375 4.0625 0.09375 Z M 4.0625 -0.453125 C 4.601562 -0.453125 5.09375 -0.582031 5.53125 -0.84375 C 5.976562 -1.101562 6.332031 -1.453125 6.59375 -1.890625 C 6.851562 -2.335938 6.984375 -2.828125 6.984375 -3.359375 C 6.984375 -3.898438 6.851562 -4.390625 6.59375 -4.828125 C 6.332031 -5.273438 5.976562 -5.628906 5.53125 -5.890625 C 5.09375 -6.148438 4.601562 -6.28125 4.0625 -6.28125 C 3.53125 -6.28125 3.039062 -6.148438 2.59375 -5.890625 C 2.15625 -5.628906 1.804688 -5.273438 1.546875 -4.828125 C 1.285156 -4.390625 1.15625 -3.898438 1.15625 -3.359375 C 1.15625 -2.828125 1.285156 -2.335938 1.546875 -1.890625 C 1.804688 -1.453125 2.15625 -1.101562 2.59375 -0.84375 C 3.039062 -0.582031 3.53125 -0.453125 4.0625 -0.453125 Z M 4.0625 -0.453125 "/></g></g></g><g fill="#ffffff" fill-opacity="1"><g transform="translate(149.751771, 23.638119)"><g><path d="M 2.625 -4.578125 C 2.914062 -4.578125 3.1875 -4.5 3.4375 -4.34375 C 3.6875 -4.195312 3.882812 -3.992188 4.03125 -3.734375 C 4.1875 -3.484375 4.265625 -3.195312 4.265625 -2.875 L 4.265625 0 L 3.75 0 L 3.75 -2.875 C 3.75 -3.207031 3.632812 -3.488281 3.40625 -3.71875 C 3.1875 -3.945312 2.910156 -4.0625 2.578125 -4.0625 C 2.253906 -4.0625 1.976562 -3.945312 1.75 -3.71875 C 1.519531 -3.488281 1.40625 -3.207031 1.40625 -2.875 L 1.40625 0 L 0.875 0 L 0.875 -4.484375 L 1.40625 -4.484375 L 1.40625 -4 C 1.550781 -4.175781 1.726562 -4.316406 1.9375 -4.421875 C 2.15625 -4.523438 2.382812 -4.578125 2.625 -4.578125 Z M 2.625 -4.578125 "/></g></g></g><g fill="#ffffff" fill-opacity="1"><g transform="translate(154.824263, 23.638119)"><g><path d="M 0.875 0 L 0.875 -8.25 L 1.40625 -8.25 L 1.40625 0 Z M 0.875 0 "/></g></g></g><g fill="#ffffff" fill-opacity="1"><g transform="translate(157.097367, 23.638119)"><g><path d="M 1.234375 -5.34375 C 1.117188 -5.34375 1.019531 -5.378906 0.9375 -5.453125 C 0.851562 -5.535156 0.8125 -5.632812 0.8125 -5.75 C 0.8125 -5.875 0.851562 -5.972656 0.9375 -6.046875 C 1.019531 -6.128906 1.117188 -6.171875 1.234375 -6.171875 C 1.347656 -6.171875 1.441406 -6.128906 1.515625 -6.046875 C 1.597656 -5.972656 1.640625 -5.875 1.640625 -5.75 C 1.640625 -5.632812 1.597656 -5.535156 1.515625 -5.453125 C 1.441406 -5.378906 1.347656 -5.34375 1.234375 -5.34375 Z M 0.96875 0 L 0.96875 -4.484375 L 1.484375 -4.484375 L 1.484375 0 Z M 0.96875 0 "/></g></g></g><g fill="#ffffff" fill-opacity="1"><g transform="translate(159.56083, 23.638119)"><g><path d="M 2.625 -4.578125 C 2.914062 -4.578125 3.1875 -4.5 3.4375 -4.34375 C 3.6875 -4.195312 3.882812 -3.992188 4.03125 -3.734375 C 4.1875 -3.484375 4.265625 -3.195312 4.265625 -2.875 L 4.265625 0 L 3.75 0 L 3.75 -2.875 C 3.75 -3.207031 3.632812 -3.488281 3.40625 -3.71875 C 3.1875 -3.945312 2.910156 -4.0625 2.578125 -4.0625 C 2.253906 -4.0625 1.976562 -3.945312 1.75 -3.71875 C 1.519531 -3.488281 1.40625 -3.207031 1.40625 -2.875 L 1.40625 0 L 0.875 0 L 0.875 -4.484375 L 1.40625 -4.484375 L 1.40625 -4 C 1.550781 -4.175781 1.726562 -4.316406 1.9375 -4.421875 C 2.15625 -4.523438 2.382812 -4.578125 2.625 -4.578125 Z M 2.625 -4.578125 "/></g></g></g><g fill="#ffffff" fill-opacity="1"><g transform="translate(164.633322, 23.638119)"><g><path d="M 5.203125 -2.3125 L 5.203125 -2.1875 L 1.0625 -2.1875 C 1.070312 -1.863281 1.15625 -1.566406 1.3125 -1.296875 C 1.476562 -1.035156 1.695312 -0.828125 1.96875 -0.671875 C 2.25 -0.515625 2.550781 -0.4375 2.875 -0.4375 C 3.257812 -0.4375 3.601562 -0.539062 3.90625 -0.75 C 4.207031 -0.957031 4.425781 -1.226562 4.5625 -1.5625 L 5.109375 -1.5625 C 4.972656 -1.09375 4.695312 -0.695312 4.28125 -0.375 C 3.875 -0.0625 3.40625 0.09375 2.875 0.09375 C 2.445312 0.09375 2.054688 -0.0078125 1.703125 -0.21875 C 1.347656 -0.425781 1.066406 -0.707031 0.859375 -1.0625 C 0.648438 -1.425781 0.546875 -1.816406 0.546875 -2.234375 C 0.546875 -2.671875 0.648438 -3.066406 0.859375 -3.421875 C 1.066406 -3.773438 1.347656 -4.054688 1.703125 -4.265625 C 2.054688 -4.472656 2.445312 -4.578125 2.875 -4.578125 C 3.300781 -4.578125 3.6875 -4.476562 4.03125 -4.28125 C 4.375 -4.082031 4.648438 -3.8125 4.859375 -3.46875 C 5.066406 -3.125 5.179688 -2.738281 5.203125 -2.3125 Z M 2.875 -4.046875 C 2.445312 -4.046875 2.070312 -3.914062 1.75 -3.65625 C 1.425781 -3.40625 1.21875 -3.078125 1.125 -2.671875 L 4.625 -2.671875 C 4.53125 -3.066406 4.320312 -3.394531 4 -3.65625 C 3.675781 -3.914062 3.300781 -4.046875 2.875 -4.046875 Z M 2.875 -4.046875 "/></g></g></g><g fill="#a2a2a2" fill-opacity="1"><g transform="translate(31.258968, 34.931687)"><g><path d="M 6.203125 -5.96875 L 6.328125 -5.96875 L 6.328125 0 L 6.171875 0 L 6.171875 -5.609375 L 3.671875 0 L 3.53125 0 L 1.03125 -5.609375 L 1.03125 0 L 0.875 0 L 0.875 -5.96875 L 1.015625 -5.96875 L 3.609375 -0.203125 Z M 6.203125 -5.96875 "/></g></g></g><g fill="#a2a2a2" fill-opacity="1"><g transform="translate(38.473616, 34.931687)"><g><path d="M 5.1875 -0.078125 L 5.484375 -0.078125 L 5.484375 0 C 5.390625 0.0507812 5.289062 0.078125 5.1875 0.078125 C 4.757812 0.078125 4.546875 -0.179688 4.546875 -0.703125 L 4.546875 -1.1875 C 4.390625 -0.800781 4.140625 -0.492188 3.796875 -0.265625 C 3.453125 -0.0351562 3.0625 0.078125 2.625 0.078125 C 2.25 0.078125 1.90625 -0.015625 1.59375 -0.203125 C 1.28125 -0.390625 1.03125 -0.640625 0.84375 -0.953125 C 0.65625 -1.265625 0.5625 -1.609375 0.5625 -1.984375 C 0.5625 -2.367188 0.65625 -2.71875 0.84375 -3.03125 C 1.03125 -3.34375 1.28125 -3.59375 1.59375 -3.78125 C 1.90625 -3.96875 2.25 -4.0625 2.625 -4.0625 C 3.0625 -4.0625 3.453125 -3.941406 3.796875 -3.703125 C 4.140625 -3.460938 4.390625 -3.148438 4.546875 -2.765625 L 4.546875 -3.984375 L 4.703125 -3.984375 L 4.703125 -0.703125 C 4.703125 -0.285156 4.863281 -0.078125 5.1875 -0.078125 Z M 2.625 -0.078125 C 2.976562 -0.078125 3.300781 -0.160156 3.59375 -0.328125 C 3.882812 -0.503906 4.113281 -0.738281 4.28125 -1.03125 C 4.457031 -1.320312 4.546875 -1.640625 4.546875 -1.984375 C 4.546875 -2.335938 4.457031 -2.660156 4.28125 -2.953125 C 4.113281 -3.242188 3.882812 -3.472656 3.59375 -3.640625 C 3.300781 -3.816406 2.976562 -3.90625 2.625 -3.90625 C 2.28125 -3.90625 1.960938 -3.816406 1.671875 -3.640625 C 1.378906 -3.472656 1.144531 -3.242188 0.96875 -2.953125 C 0.800781 -2.660156 0.71875 -2.335938 0.71875 -1.984375 C 0.71875 -1.640625 0.800781 -1.320312 0.96875 -1.03125 C 1.144531 -0.738281 1.378906 -0.503906 1.671875 -0.328125 C 1.960938 -0.160156 2.28125 -0.078125 2.625 -0.078125 Z M 2.625 -0.078125 "/></g></g></g><g fill="#a2a2a2" fill-opacity="1"><g transform="translate(44.034075, 34.931687)"><g><path d="M 4.546875 -7.328125 L 4.703125 -7.328125 L 4.703125 0 L 4.546875 0 L 4.546875 -1.203125 C 4.378906 -0.828125 4.125 -0.519531 3.78125 -0.28125 C 3.445312 -0.0390625 3.0625 0.078125 2.625 0.078125 C 2.25 0.078125 1.90625 -0.015625 1.59375 -0.203125 C 1.28125 -0.390625 1.03125 -0.640625 0.84375 -0.953125 C 0.65625 -1.265625 0.5625 -1.609375 0.5625 -1.984375 C 0.5625 -2.367188 0.65625 -2.71875 0.84375 -3.03125 C 1.03125 -3.34375 1.28125 -3.59375 1.59375 -3.78125 C 1.90625 -3.96875 2.25 -4.0625 2.625 -4.0625 C 3.0625 -4.0625 3.445312 -3.941406 3.78125 -3.703125 C 4.125 -3.460938 4.378906 -3.15625 4.546875 -2.78125 Z M 2.625 -0.078125 C 2.976562 -0.078125 3.300781 -0.160156 3.59375 -0.328125 C 3.882812 -0.503906 4.113281 -0.738281 4.28125 -1.03125 C 4.457031 -1.320312 4.546875 -1.640625 4.546875 -1.984375 C 4.546875 -2.335938 4.457031 -2.660156 4.28125 -2.953125 C 4.113281 -3.242188 3.882812 -3.472656 3.59375 -3.640625 C 3.300781 -3.816406 2.976562 -3.90625 2.625 -3.90625 C 2.28125 -3.90625 1.960938 -3.816406 1.671875 -3.640625 C 1.378906 -3.472656 1.144531 -3.242188 0.96875 -2.953125 C 0.800781 -2.660156 0.71875 -2.335938 0.71875 -1.984375 C 0.71875 -1.640625 0.800781 -1.320312 0.96875 -1.03125 C 1.144531 -0.738281 1.378906 -0.503906 1.671875 -0.328125 C 1.960938 -0.160156 2.28125 -0.078125 2.625 -0.078125 Z M 2.625 -0.078125 "/></g></g></g><g fill="#a2a2a2" fill-opacity="1"><g transform="translate(49.614463, 34.931687)"><g><path d="M 4.6875 -2.03125 L 0.71875 -2.03125 L 0.71875 -1.953125 C 0.726562 -1.609375 0.816406 -1.289062 0.984375 -1 C 1.160156 -0.71875 1.390625 -0.492188 1.671875 -0.328125 C 1.960938 -0.160156 2.28125 -0.078125 2.625 -0.078125 C 3.039062 -0.078125 3.414062 -0.195312 3.75 -0.4375 C 4.082031 -0.6875 4.3125 -0.992188 4.4375 -1.359375 L 4.609375 -1.359375 C 4.515625 -1.085938 4.367188 -0.835938 4.171875 -0.609375 C 3.984375 -0.390625 3.753906 -0.21875 3.484375 -0.09375 C 3.222656 0.0195312 2.9375 0.078125 2.625 0.078125 C 2.25 0.078125 1.90625 -0.015625 1.59375 -0.203125 C 1.28125 -0.390625 1.03125 -0.640625 0.84375 -0.953125 C 0.65625 -1.265625 0.5625 -1.609375 0.5625 -1.984375 C 0.5625 -2.367188 0.65625 -2.71875 0.84375 -3.03125 C 1.03125 -3.34375 1.28125 -3.59375 1.59375 -3.78125 C 1.90625 -3.96875 2.25 -4.0625 2.625 -4.0625 C 3 -4.0625 3.335938 -3.972656 3.640625 -3.796875 C 3.941406 -3.628906 4.1875 -3.394531 4.375 -3.09375 C 4.5625 -2.800781 4.664062 -2.46875 4.6875 -2.09375 Z M 2.625 -3.90625 C 2.289062 -3.90625 1.988281 -3.828125 1.71875 -3.671875 C 1.445312 -3.523438 1.222656 -3.320312 1.046875 -3.0625 C 0.867188 -2.800781 0.765625 -2.507812 0.734375 -2.1875 L 4.53125 -2.1875 C 4.5 -2.507812 4.390625 -2.800781 4.203125 -3.0625 C 4.023438 -3.320312 3.800781 -3.523438 3.53125 -3.671875 C 3.257812 -3.828125 2.957031 -3.90625 2.625 -3.90625 Z M 2.625 -3.90625 "/></g></g></g><g fill="#a2a2a2" fill-opacity="1"><g transform="translate(54.826154, 34.931687)"><g/></g></g><g fill="#a2a2a2" fill-opacity="1"><g transform="translate(57.377189, 34.931687)"><g><path d="M 2.953125 -4.0625 C 3.328125 -4.0625 3.671875 -3.96875 3.984375 -3.78125 C 4.304688 -3.59375 4.554688 -3.34375 4.734375 -3.03125 C 4.921875 -2.71875 5.015625 -2.367188 5.015625 -1.984375 C 5.015625 -1.609375 4.921875 -1.265625 4.734375 -0.953125 C 4.554688 -0.640625 4.304688 -0.390625 3.984375 -0.203125 C 3.671875 -0.015625 3.328125 0.078125 2.953125 0.078125 C 2.523438 0.078125 2.140625 -0.0390625 1.796875 -0.28125 C 1.453125 -0.519531 1.195312 -0.828125 1.03125 -1.203125 L 1.03125 0 L 0.875 0 L 0.875 -7.328125 L 1.03125 -7.328125 L 1.03125 -2.78125 C 1.195312 -3.15625 1.453125 -3.460938 1.796875 -3.703125 C 2.140625 -3.941406 2.523438 -4.0625 2.953125 -4.0625 Z M 2.953125 -0.078125 C 3.296875 -0.078125 3.613281 -0.160156 3.90625 -0.328125 C 4.195312 -0.503906 4.425781 -0.738281 4.59375 -1.03125 C 4.769531 -1.320312 4.859375 -1.640625 4.859375 -1.984375 C 4.859375 -2.335938 4.769531 -2.660156 4.59375 -2.953125 C 4.425781 -3.242188 4.195312 -3.472656 3.90625 -3.640625 C 3.613281 -3.816406 3.296875 -3.90625 2.953125 -3.90625 C 2.597656 -3.90625 2.273438 -3.816406 1.984375 -3.640625 C 1.691406 -3.472656 1.457031 -3.242188 1.28125 -2.953125 C 1.113281 -2.660156 1.03125 -2.335938 1.03125 -1.984375 C 1.03125 -1.640625 1.113281 -1.320312 1.28125 -1.03125 C 1.457031 -0.738281 1.691406 -0.503906 1.984375 -0.328125 C 2.273438 -0.160156 2.597656 -0.078125 2.953125 -0.078125 Z M 2.953125 -0.078125 "/></g></g></g><g clip-path="url(#bd69aef6e8)"><g fill="#a2a2a2" fill-opacity="1"><g transform="translate(62.957577, 34.931687)"><g><path d="M 3.4375 -3.984375 L 3.609375 -3.984375 L 1.0625 2.390625 L 0.890625 2.390625 L 1.84375 0 L 0.234375 -3.984375 L 0.421875 -3.984375 L 1.921875 -0.21875 L 1.9375 -0.21875 Z M 3.4375 -3.984375 "/></g></g></g></g><g fill="#a2a2a2" fill-opacity="1"><g transform="translate(66.804059, 34.931687)"><g/></g></g><g fill="#a2a2a2" fill-opacity="1"><g transform="translate(69.355095, 34.931687)"><g><path d="M 3.71875 -3.03125 L 6.796875 -3.03125 L 6.796875 -2.984375 C 6.796875 -2.554688 6.710938 -2.160156 6.546875 -1.796875 C 6.390625 -1.429688 6.171875 -1.101562 5.890625 -0.8125 C 5.617188 -0.53125 5.296875 -0.3125 4.921875 -0.15625 C 4.546875 0 4.144531 0.078125 3.71875 0.078125 C 3.300781 0.078125 2.90625 0 2.53125 -0.15625 C 2.164062 -0.3125 1.84375 -0.53125 1.5625 -0.8125 C 1.28125 -1.101562 1.054688 -1.429688 0.890625 -1.796875 C 0.734375 -2.160156 0.65625 -2.554688 0.65625 -2.984375 C 0.65625 -3.410156 0.734375 -3.804688 0.890625 -4.171875 C 1.054688 -4.546875 1.28125 -4.875 1.5625 -5.15625 C 1.84375 -5.4375 2.164062 -5.65625 2.53125 -5.8125 C 2.90625 -5.976562 3.300781 -6.0625 3.71875 -6.0625 C 4.289062 -6.0625 4.804688 -5.921875 5.265625 -5.640625 C 5.734375 -5.359375 6.101562 -4.992188 6.375 -4.546875 L 6.234375 -4.46875 C 5.984375 -4.894531 5.632812 -5.238281 5.1875 -5.5 C 4.75 -5.757812 4.257812 -5.890625 3.71875 -5.890625 C 3.320312 -5.890625 2.945312 -5.816406 2.59375 -5.671875 C 2.25 -5.523438 1.941406 -5.316406 1.671875 -5.046875 C 1.398438 -4.785156 1.1875 -4.476562 1.03125 -4.125 C 0.882812 -3.769531 0.8125 -3.390625 0.8125 -2.984375 C 0.8125 -2.578125 0.882812 -2.195312 1.03125 -1.84375 C 1.1875 -1.5 1.398438 -1.191406 1.671875 -0.921875 C 1.941406 -0.660156 2.25 -0.453125 2.59375 -0.296875 C 2.945312 -0.148438 3.320312 -0.078125 3.71875 -0.078125 C 4.113281 -0.078125 4.484375 -0.148438 4.828125 -0.296875 C 5.171875 -0.441406 5.472656 -0.640625 5.734375 -0.890625 C 6.003906 -1.148438 6.21875 -1.445312 6.375 -1.78125 C 6.53125 -2.125 6.617188 -2.488281 6.640625 -2.875 L 3.71875 -2.875 Z M 3.71875 -3.03125 "/></g></g></g><g fill="#a2a2a2" fill-opacity="1"><g transform="translate(76.818866, 34.931687)"><g><path d="M 4.6875 -2.03125 L 0.71875 -2.03125 L 0.71875 -1.953125 C 0.726562 -1.609375 0.816406 -1.289062 0.984375 -1 C 1.160156 -0.71875 1.390625 -0.492188 1.671875 -0.328125 C 1.960938 -0.160156 2.28125 -0.078125 2.625 -0.078125 C 3.039062 -0.078125 3.414062 -0.195312 3.75 -0.4375 C 4.082031 -0.6875 4.3125 -0.992188 4.4375 -1.359375 L 4.609375 -1.359375 C 4.515625 -1.085938 4.367188 -0.835938 4.171875 -0.609375 C 3.984375 -0.390625 3.753906 -0.21875 3.484375 -0.09375 C 3.222656 0.0195312 2.9375 0.078125 2.625 0.078125 C 2.25 0.078125 1.90625 -0.015625 1.59375 -0.203125 C 1.28125 -0.390625 1.03125 -0.640625 0.84375 -0.953125 C 0.65625 -1.265625 0.5625 -1.609375 0.5625 -1.984375 C 0.5625 -2.367188 0.65625 -2.71875 0.84375 -3.03125 C 1.03125 -3.34375 1.28125 -3.59375 1.59375 -3.78125 C 1.90625 -3.96875 2.25 -4.0625 2.625 -4.0625 C 3 -4.0625 3.335938 -3.972656 3.640625 -3.796875 C 3.941406 -3.628906 4.1875 -3.394531 4.375 -3.09375 C 4.5625 -2.800781 4.664062 -2.46875 4.6875 -2.09375 Z M 2.625 -3.90625 C 2.289062 -3.90625 1.988281 -3.828125 1.71875 -3.671875 C 1.445312 -3.523438 1.222656 -3.320312 1.046875 -3.0625 C 0.867188 -2.800781 0.765625 -2.507812 0.734375 -2.1875 L 4.53125 -2.1875 C 4.5 -2.507812 4.390625 -2.800781 4.203125 -3.0625 C 4.023438 -3.320312 3.800781 -3.523438 3.53125 -3.671875 C 3.257812 -3.828125 2.957031 -3.90625 2.625 -3.90625 Z M 2.625 -3.90625 "/></g></g></g><g fill="#a2a2a2" fill-opacity="1"><g transform="translate(82.030556, 34.931687)"><g><path d="M 2.625 0.078125 C 2.25 0.078125 1.90625 -0.015625 1.59375 -0.203125 C 1.28125 -0.390625 1.03125 -0.640625 0.84375 -0.953125 C 0.65625 -1.265625 0.5625 -1.609375 0.5625 -1.984375 C 0.5625 -2.367188 0.65625 -2.71875 0.84375 -3.03125 C 1.03125 -3.34375 1.28125 -3.59375 1.59375 -3.78125 C 1.90625 -3.96875 2.25 -4.0625 2.625 -4.0625 C 3.0625 -4.0625 3.453125 -3.9375 3.796875 -3.6875 C 4.148438 -3.445312 4.40625 -3.132812 4.5625 -2.75 L 4.40625 -2.75 C 4.257812 -3.09375 4.023438 -3.367188 3.703125 -3.578125 C 3.378906 -3.796875 3.019531 -3.90625 2.625 -3.90625 C 2.28125 -3.90625 1.957031 -3.816406 1.65625 -3.640625 C 1.363281 -3.472656 1.128906 -3.25 0.953125 -2.96875 C 0.785156 -2.6875 0.707031 -2.359375 0.71875 -1.984375 C 0.707031 -1.628906 0.785156 -1.304688 0.953125 -1.015625 C 1.128906 -0.734375 1.363281 -0.503906 1.65625 -0.328125 C 1.957031 -0.160156 2.28125 -0.078125 2.625 -0.078125 C 3.019531 -0.078125 3.378906 -0.179688 3.703125 -0.390625 C 4.023438 -0.609375 4.257812 -0.890625 4.40625 -1.234375 L 4.5625 -1.234375 C 4.40625 -0.847656 4.148438 -0.53125 3.796875 -0.28125 C 3.453125 -0.0390625 3.0625 0.078125 2.625 0.078125 Z M 2.625 0.078125 "/></g></g></g><g fill="#a2a2a2" fill-opacity="1"><g transform="translate(87.052911, 34.931687)"><g><path d="M 0.9375 -0.015625 L 0.9375 -7.328125 L 1.09375 -7.328125 L 1.09375 -0.015625 Z M 3.421875 0 L 1.21875 -2.234375 L 3.25 -3.984375 L 3.5 -3.984375 L 1.453125 -2.234375 L 3.65625 0 Z M 3.421875 0 "/></g></g></g><g fill="#a2a2a2" fill-opacity="1"><g transform="translate(90.8695, 34.931687)"><g><path d="M 2.625 0.078125 C 2.25 0.078125 1.90625 -0.015625 1.59375 -0.203125 C 1.28125 -0.390625 1.03125 -0.640625 0.84375 -0.953125 C 0.65625 -1.265625 0.5625 -1.609375 0.5625 -1.984375 C 0.5625 -2.367188 0.65625 -2.71875 0.84375 -3.03125 C 1.03125 -3.34375 1.28125 -3.59375 1.59375 -3.78125 C 1.90625 -3.96875 2.25 -4.0625 2.625 -4.0625 C 3.007812 -4.0625 3.359375 -3.96875 3.671875 -3.78125 C 3.984375 -3.59375 4.234375 -3.34375 4.421875 -3.03125 C 4.609375 -2.71875 4.703125 -2.367188 4.703125 -1.984375 C 4.703125 -1.609375 4.609375 -1.265625 4.421875 -0.953125 C 4.234375 -0.640625 3.984375 -0.390625 3.671875 -0.203125 C 3.359375 -0.015625 3.007812 0.078125 2.625 0.078125 Z M 2.625 -0.078125 C 2.976562 -0.078125 3.300781 -0.160156 3.59375 -0.328125 C 3.882812 -0.503906 4.113281 -0.738281 4.28125 -1.03125 C 4.457031 -1.320312 4.546875 -1.640625 4.546875 -1.984375 C 4.546875 -2.335938 4.457031 -2.660156 4.28125 -2.953125 C 4.113281 -3.242188 3.882812 -3.472656 3.59375 -3.640625 C 3.300781 -3.816406 2.976562 -3.90625 2.625 -3.90625 C 2.28125 -3.90625 1.960938 -3.816406 1.671875 -3.640625 C 1.378906 -3.472656 1.144531 -3.242188 0.96875 -2.953125 C 0.800781 -2.660156 0.71875 -2.335938 0.71875 -1.984375 C 0.71875 -1.640625 0.800781 -1.320312 0.96875 -1.03125 C 1.144531 -0.738281 1.378906 -0.503906 1.671875 -0.328125 C 1.960938 -0.160156 2.28125 -0.078125 2.625 -0.078125 Z M 2.625 -0.078125 "/></g></g></g><g fill="#a2a2a2" fill-opacity="1"><g transform="translate(96.131013, 34.931687)"><g><path d="M 1.765625 0.078125 C 1.472656 0.078125 1.203125 0.00390625 0.953125 -0.140625 C 0.710938 -0.296875 0.554688 -0.476562 0.484375 -0.6875 L 0.625 -0.734375 C 0.695312 -0.554688 0.84375 -0.398438 1.0625 -0.265625 C 1.28125 -0.140625 1.515625 -0.078125 1.765625 -0.078125 C 2.023438 -0.078125 2.253906 -0.148438 2.453125 -0.296875 C 2.660156 -0.453125 2.765625 -0.671875 2.765625 -0.953125 C 2.765625 -1.140625 2.71875 -1.289062 2.625 -1.40625 C 2.53125 -1.53125 2.40625 -1.628906 2.25 -1.703125 C 2.101562 -1.785156 1.941406 -1.859375 1.765625 -1.921875 C 1.585938 -1.992188 1.414062 -2.070312 1.25 -2.15625 C 1.082031 -2.238281 0.941406 -2.347656 0.828125 -2.484375 C 0.722656 -2.628906 0.671875 -2.816406 0.671875 -3.046875 C 0.671875 -3.296875 0.726562 -3.492188 0.84375 -3.640625 C 0.96875 -3.785156 1.113281 -3.890625 1.28125 -3.953125 C 1.445312 -4.023438 1.609375 -4.0625 1.765625 -4.0625 C 1.960938 -4.0625 2.144531 -4.015625 2.3125 -3.921875 C 2.488281 -3.828125 2.617188 -3.722656 2.703125 -3.609375 L 2.578125 -3.5 C 2.484375 -3.632812 2.363281 -3.734375 2.21875 -3.796875 C 2.070312 -3.859375 1.921875 -3.890625 1.765625 -3.890625 C 1.617188 -3.890625 1.472656 -3.859375 1.328125 -3.796875 C 1.191406 -3.742188 1.078125 -3.65625 0.984375 -3.53125 C 0.890625 -3.414062 0.84375 -3.257812 0.84375 -3.0625 C 0.84375 -2.875 0.890625 -2.71875 0.984375 -2.59375 C 1.078125 -2.476562 1.195312 -2.378906 1.34375 -2.296875 C 1.5 -2.222656 1.660156 -2.148438 1.828125 -2.078125 C 2.015625 -2.003906 2.1875 -1.921875 2.34375 -1.828125 C 2.507812 -1.734375 2.644531 -1.617188 2.75 -1.484375 C 2.863281 -1.347656 2.921875 -1.160156 2.921875 -0.921875 C 2.921875 -0.640625 2.804688 -0.398438 2.578125 -0.203125 C 2.359375 -0.015625 2.085938 0.078125 1.765625 0.078125 Z M 1.765625 0.078125 "/></g></g></g><g fill="#a2a2a2" fill-opacity="1"><g transform="translate(99.539037, 34.931687)"><g/></g></g><g fill="#a2a2a2" fill-opacity="1"><g transform="translate(102.090073, 34.931687)"><g><path d="M 4.796875 -3.140625 L 4.796875 -2.984375 L 4.171875 -2.984375 L 4.171875 -1.5625 C 4.171875 -1.113281 4.023438 -0.738281 3.734375 -0.4375 C 3.453125 -0.144531 3.070312 0 2.59375 0 C 2.28125 0 1.992188 -0.0664062 1.734375 -0.203125 C 1.472656 -0.335938 1.265625 -0.519531 1.109375 -0.75 C 0.953125 -0.988281 0.875 -1.265625 0.875 -1.578125 C 0.875 -1.929688 0.972656 -2.242188 1.171875 -2.515625 C 1.378906 -2.785156 1.640625 -2.972656 1.953125 -3.078125 C 1.648438 -3.179688 1.40625 -3.363281 1.21875 -3.625 C 1.03125 -3.882812 0.9375 -4.179688 0.9375 -4.515625 C 0.9375 -4.804688 1.003906 -5.0625 1.140625 -5.28125 C 1.285156 -5.5 1.46875 -5.664062 1.6875 -5.78125 C 1.914062 -5.90625 2.160156 -5.96875 2.421875 -5.96875 L 3.6875 -5.96875 L 3.6875 -5.8125 L 2.4375 -5.8125 C 2.195312 -5.8125 1.972656 -5.753906 1.765625 -5.640625 C 1.566406 -5.535156 1.40625 -5.382812 1.28125 -5.1875 C 1.15625 -5 1.09375 -4.773438 1.09375 -4.515625 C 1.09375 -4.265625 1.15625 -4.035156 1.28125 -3.828125 C 1.40625 -3.617188 1.570312 -3.453125 1.78125 -3.328125 C 1.988281 -3.203125 2.222656 -3.140625 2.484375 -3.140625 L 4.015625 -3.140625 L 4.015625 -4.328125 L 4.171875 -4.328125 L 4.171875 -3.140625 Z M 4.015625 -1.5625 L 4.015625 -2.984375 L 2.40625 -2.984375 C 2.15625 -2.984375 1.925781 -2.921875 1.71875 -2.796875 C 1.507812 -2.671875 1.34375 -2.5 1.21875 -2.28125 C 1.09375 -2.070312 1.03125 -1.835938 1.03125 -1.578125 C 1.03125 -1.304688 1.097656 -1.0625 1.234375 -0.84375 C 1.378906 -0.625 1.566406 -0.453125 1.796875 -0.328125 C 2.035156 -0.210938 2.300781 -0.15625 2.59375 -0.15625 C 3.019531 -0.15625 3.363281 -0.285156 3.625 -0.546875 C 3.882812 -0.816406 4.015625 -1.15625 4.015625 -1.5625 Z M 4.015625 -1.5625 "/></g></g></g><g fill="#a2a2a2" fill-opacity="1"><g transform="translate(107.441267, 34.931687)"><g/></g></g><g fill="#a2a2a2" fill-opacity="1"><g transform="translate(109.992302, 34.931687)"><g><path d="M 2.921875 0.078125 C 2.535156 0.078125 2.1875 -0.015625 1.875 -0.203125 C 1.5625 -0.390625 1.3125 -0.640625 1.125 -0.953125 C 0.9375 -1.265625 0.84375 -1.609375 0.84375 -1.984375 L 0.84375 -5.96875 L 1 -5.96875 L 1 -1.984375 C 1 -1.640625 1.082031 -1.320312 1.25 -1.03125 C 1.425781 -0.738281 1.65625 -0.503906 1.9375 -0.328125 C 2.226562 -0.160156 2.554688 -0.078125 2.921875 -0.078125 C 3.273438 -0.078125 3.59375 -0.160156 3.875 -0.328125 C 4.164062 -0.503906 4.394531 -0.738281 4.5625 -1.03125 C 4.738281 -1.320312 4.828125 -1.640625 4.828125 -1.984375 L 4.828125 -5.96875 L 4.984375 -5.96875 L 4.984375 -1.984375 C 4.984375 -1.609375 4.890625 -1.265625 4.703125 -0.953125 C 4.523438 -0.640625 4.28125 -0.390625 3.96875 -0.203125 C 3.65625 -0.015625 3.304688 0.078125 2.921875 0.078125 Z M 2.921875 0.078125 "/></g></g></g><g fill="#a2a2a2" fill-opacity="1"><g transform="translate(115.831777, 34.931687)"><g><path d="M 0.875 0 L 0.875 -5.96875 L 2.265625 -5.96875 C 2.679688 -5.96875 3.066406 -5.890625 3.421875 -5.734375 C 3.785156 -5.585938 4.101562 -5.375 4.375 -5.09375 C 4.65625 -4.820312 4.875 -4.503906 5.03125 -4.140625 C 5.1875 -3.785156 5.265625 -3.398438 5.265625 -2.984375 C 5.265625 -2.578125 5.1875 -2.191406 5.03125 -1.828125 C 4.875 -1.460938 4.65625 -1.144531 4.375 -0.875 C 4.101562 -0.601562 3.785156 -0.390625 3.421875 -0.234375 C 3.066406 -0.078125 2.679688 0 2.265625 0 Z M 1.03125 -0.15625 L 2.265625 -0.15625 C 2.660156 -0.15625 3.03125 -0.226562 3.375 -0.375 C 3.71875 -0.519531 4.015625 -0.722656 4.265625 -0.984375 C 4.523438 -1.242188 4.726562 -1.546875 4.875 -1.890625 C 5.019531 -2.234375 5.09375 -2.597656 5.09375 -2.984375 C 5.09375 -3.378906 5.019531 -3.75 4.875 -4.09375 C 4.726562 -4.4375 4.523438 -4.734375 4.265625 -4.984375 C 4.015625 -5.242188 3.71875 -5.445312 3.375 -5.59375 C 3.03125 -5.738281 2.660156 -5.8125 2.265625 -5.8125 L 1.03125 -5.8125 Z M 1.03125 -0.15625 "/></g></g></g><g fill="#a2a2a2" fill-opacity="1"><g transform="translate(121.750978, 34.931687)"><g><path d="M 3.953125 -5.8125 L 1.078125 -5.8125 L 1.078125 -3.0625 L 3.609375 -3.0625 L 3.609375 -2.90625 L 1.078125 -2.90625 L 1.078125 -0.15625 L 3.953125 -0.15625 L 3.953125 0 L 0.921875 0 L 0.921875 -5.96875 L 3.953125 -5.96875 Z M 3.953125 -5.8125 "/></g></g></g><g fill="#a2a2a2" fill-opacity="1"><g transform="translate(126.384697, 34.931687)"><g><path d="M 1.03125 -0.15625 L 3.421875 -0.15625 L 3.421875 0 L 0.875 0 L 0.875 -5.96875 L 1.03125 -5.96875 Z M 1.03125 -0.15625 "/></g></g></g><g fill="#a2a2a2" fill-opacity="1"><g transform="translate(130.370693, 34.931687)"><g><path d="M 4.46875 0 L 3.90625 -1.546875 L 0.890625 -1.546875 L 0.34375 0 L 0.15625 0 L 2.3125 -5.96875 L 2.484375 -5.96875 L 4.640625 0 Z M 0.953125 -1.703125 L 3.859375 -1.703125 L 2.40625 -5.75 Z M 0.953125 -1.703125 "/></g></g></g><g fill="#a2a2a2" fill-opacity="1"><g transform="translate(135.173819, 34.931687)"><g><path d="M 2.8125 -2.828125 L 4.625 0 L 4.4375 0 L 2.65625 -2.828125 L 1.03125 -2.828125 L 1.03125 0 L 0.875 0 L 0.875 -5.96875 L 2.734375 -5.96875 C 3.023438 -5.96875 3.285156 -5.898438 3.515625 -5.765625 C 3.753906 -5.628906 3.941406 -5.441406 4.078125 -5.203125 C 4.222656 -4.960938 4.296875 -4.695312 4.296875 -4.40625 C 4.296875 -4.125 4.226562 -3.863281 4.09375 -3.625 C 3.96875 -3.394531 3.789062 -3.207031 3.5625 -3.0625 C 3.34375 -2.925781 3.09375 -2.847656 2.8125 -2.828125 Z M 1.03125 -2.984375 L 2.734375 -2.984375 C 2.992188 -2.984375 3.226562 -3.046875 3.4375 -3.171875 C 3.65625 -3.296875 3.828125 -3.46875 3.953125 -3.6875 C 4.078125 -3.90625 4.140625 -4.144531 4.140625 -4.40625 C 4.140625 -4.664062 4.070312 -4.898438 3.9375 -5.109375 C 3.8125 -5.328125 3.644531 -5.5 3.4375 -5.625 C 3.226562 -5.75 2.992188 -5.8125 2.734375 -5.8125 L 1.03125 -5.8125 Z M 1.03125 -2.984375 "/></g></g></g></g></g></svg>